<?xml version="1.0" encoding="UTF-8"?>
<svg width="1200pt" height="1200pt" version="1.1" viewBox="0 0 1200 1200" xmlns="http://www.w3.org/2000/svg">
 <path d="m1087.5 75h-56.25c-2.2969 0-4.5938 0.42188-6.75 1.3125l-176.26 67.688c-14.016-19.688-36.609-31.406-60.75-31.5h-525c-41.438 0-75 33.562-75 75v862.5c0 19.875 7.9219 38.953 21.984 53.016s33.141 21.984 53.016 21.984h525c27.938-0.09375 53.531-15.703 66.375-40.5l173.26 40.5c1.3594 0.1875 2.7656 0.1875 4.125 0h56.25c9.9375 0 19.5-3.9375 26.531-10.969s10.969-16.594 10.969-26.531v-975c0-9.9375-3.9375-19.5-10.969-26.531s-16.594-10.969-26.531-10.969zm-240.94 969.37-40.312-9.375v-222.19l206.26 63.562v206.26zm-288-140.44c2.5781 2.4375 3.9844 5.8125 3.9375 9.375v5.4375h-56.25v-5.4375c-0.046875-3.5625 1.3594-6.9375 3.9375-9.375 9.5625-9.5156 14.906-22.5 14.812-36v-42.938h18.75v42.938c-0.09375 13.5 5.25 26.484 14.812 36zm3.9375 71.062h-56.25v-18.75h56.25zm-56.25 37.5h56.25v18.75h-56.25zm93.75-18.75v-80.438c0.09375-13.5-5.25-26.484-14.812-36-2.5781-2.4375-3.9844-5.8125-3.9375-9.375v-61.688c0-4.9688-1.9688-9.75-5.4844-13.266s-8.2969-5.4844-13.266-5.4844h-56.25c-10.359 0-18.75 8.3906-18.75 18.75v61.688c0.046875 3.5625-1.3594 6.9375-3.9375 9.375-9.5625 9.5156-14.906 22.5-14.812 36v117.94h-18.75v-117.94c0.09375-13.5-5.25-26.484-14.812-36-2.5781-2.4375-3.9844-5.8125-3.9375-9.375v-61.688c0-4.9688-1.9688-9.75-5.4844-13.266s-8.2969-5.4844-13.266-5.4844h-56.25c-10.359 0-18.75 8.3906-18.75 18.75v61.688c0.046875 3.5625-1.3594 6.9375-3.9375 9.375-9.5625 9.5156-14.906 22.5-14.812 36v117.94h-37.5v-262.5h487.5v262.5h-168.74zm-191.44-89.812c2.5781 2.4375 3.9844 5.8125 3.9375 9.375v5.4375h-56.25v-5.4375c-0.046875-3.5625 1.3594-6.9375 3.9375-9.375 9.5625-9.5156 14.906-22.5 14.812-36v-42.938h18.75v42.938c-0.09375 13.5 5.25 26.484 14.812 36zm3.9375 71.062h-56.25v-18.75h56.25zm-56.25 37.5h56.25v18.75h-56.25zm115.31-684c3.375 5.5781 9.4219 8.9531 15.938 9 3.4688-0.046875 6.7969-0.98438 9.75-2.8125l208.87-128.44h62.625v225h-252.94l150-96.75c4.4531-2.5312 7.6875-6.8438 8.9062-11.812 1.2188-5.0156 0.375-10.266-2.4375-14.625-2.7656-4.3125-7.2188-7.3125-12.281-8.25-5.0156-0.98438-10.266 0.1875-14.438 3.1875l-198.94 128.26h-165.37v-225h353.44l-156.94 96.562c-8.7656 5.3906-11.531 16.875-6.1875 25.688zm375-143.44 165.94-63.938v237.74l-206.26 31.688v-190.13zm-300.37 489.94h145.13c-8.625 33-38.438 56.016-72.562 56.016s-63.938-23.016-72.562-56.016zm166.31-37.5h-187.5c-10.359 0-18.75 8.3906-18.75 18.75 0.046875 27.703 10.359 54.422 28.875 75h-66.375v-93.75c0-2.9531-0.70312-5.8125-2.0625-8.4375l-18.75-37.5c-3.1875-6.3281-9.6094-10.312-16.688-10.312h-56.25c-7.0781 0-13.5 3.9844-16.688 10.312l-18.75 37.5c-1.3594 2.625-2.0625 5.4844-2.0625 8.4375v93.75h-56.25v-262.5h487.5v262.5h-66.375c18.516-20.578 28.828-47.297 28.875-75 0-4.9688-1.9688-9.75-5.4844-13.266s-8.2969-5.4844-13.266-5.4844zm-281.26 93.75h-56.25v-89.25l11.625-23.25h33l11.625 23.25zm375-245.06 206.26-15.938v293.63l-206.26-47.625zm206.26-53.625-206.26 15.938v-19.875l206.26-31.688zm-206.26 322.31 206.26 47.625v34.688l-206.26-63.562zm-18.75 332.63h-525c-20.719 0-37.5-16.781-37.5-37.5v-862.5c0-20.719 16.781-37.5 37.5-37.5h525c8.4844 0.09375 16.688 3.0938 23.25 8.4375l-26.812 10.312h-502.69c-20.719 0-37.5 16.781-37.5 37.5v825c0 9.9375 3.9375 19.5 10.969 26.531s16.594 10.969 26.531 10.969h504.19l29.438 6.75c-7.0781 7.6406-16.969 11.953-27.375 12zm300 0h-37.5v-975h37.5z"/>
 <path d="m399.74 263.44-43.5-14.438v-5.25c0-10.359-8.3906-18.75-18.75-18.75-10.359 0-18.75 8.3906-18.75 18.75v150c0 10.359 8.3906 18.75 18.75 18.75 10.359 0 18.75-8.3906 18.75-18.75v-5.25l43.5-13.5c7.9688-2.6719 13.172-10.359 12.75-18.75v-75c0-8.0625-5.1094-15.234-12.75-17.812zm-24.75 79.312-18.75 6.1875v-60.375l18.75 6.1875z"/>
</svg>
