<?xml version="1.0" encoding="UTF-8"?>
<svg width="1200pt" height="1200pt" version="1.1" viewBox="0 0 1200 1200" xmlns="http://www.w3.org/2000/svg">
 <path d="m601.45 107.21v0.054687c-5.8047-0.054687-11.605 1.7305-16.535 5.3047l-526.13 381.2c-12.602 9.1289-15.418 26.75-6.2852 39.355 5.5117 7.6094 14.113 11.648 22.844 11.648 5.7305 0 11.516-1.7422 16.512-5.3633l509.59-369.2 508.79 368.75c4.9961 3.6211 10.785 5.3633 16.516 5.3633 8.7266 0 17.328-4.0391 22.84-11.645 9.1367-12.602 6.3242-30.223-6.2773-39.355l-525.33-380.76c-4.9336-3.5742-10.734-5.3633-16.535-5.3633v0.019531-0.019531 0.019531zm-65.922 569.19v0.039062-0.039062 0.019531zm435.34-195.42v0.054687l-0.027343 503.24-0.003907 0.019531c-0.46094 38.223-2.1016 59.5-7.8633 67.242l-0.011719 0.015625c-2.6289 3.5078-10.016 5.9609-40.125 6.5273l-133.28 0.12109c-20.469-0.58984-23.305-2.4766-23.555-2.7109l-0.003906-0.003906c-3.7109-5.6328-4.9922-22.883-5.168-55.848l-0.11328-256.88v-0.003907c0.20703-25.992 1.7891-68.406-15.383-93.32l-0.003906-0.007812c-20.602-29.914-60.438-28.914-77.059-29.484-0.57422-0.023437-0.86328-0.019531-0.86328-0.019531l-133.39 0.007813c-16.621 0.55078-56.465-0.44531-77.074 29.441l-0.003906 0.003906c-17.211 24.953-15.609 67.477-15.418 93.434v0.019531l-0.22266 256.73v0.019531c-0.19141 32.949-1.4766 50.199-5.1875 55.832l-0.003907 0.003907c-1.7578 2.0938-23.574 2.6914-23.574 2.6914l-133.27-0.14062c-30.105-0.59766-37.504-3.0508-40.129-6.5781l-0.007812-0.011719c-5.7617-7.7617-7.3867-29.016-7.8281-67.262l0.18359-502.84-56.523 40.953-0.17188 461.87v0.33594 0.015625c0.32812 28.656-0.53125 74.402 19.004 100.66 22.684 30.492 65.109 28.969 84.66 29.336 0.16406 0.003906 0.33203 0.003906 0.49609 0.003906v0.003907l97.547 0.13281c0.71094 0.035156 1.4336 0.0625 2.1602 0.0625l33.715-0.039062c0.23047 0 28.57-2.0742 28.57-2.0742 14.871-2.8008 31.465-9.4844 42.344-25.988l0.007812-0.011719c15.352-23.309 14.387-62.926 14.52-86.785v-0.13281l0.22266-256.9v-0.22656c-0.25781-35.57 0.91406-54.473 5.4219-61.004l0.007813-0.011719c1.1172-1.6406 5.1562-4.125 32.07-5.0742l131.21 0.03125c26.914 0.95703 30.949 3.4414 32.066 5.0664l0.003907 0.003906c4.5 6.5312 5.6719 25.461 5.4023 61.031-0.003906 0.074219-0.003906 0.14844-0.003906 0.22656l0.11328 256.9v0.13281c0.125 23.859-0.86328 63.484 14.477 86.781l0.007812 0.011719c10.879 16.496 27.484 23.219 42.363 26.004l0.03125 0.003906c28.32 2.0977 28.512 2.1133 28.512 2.1133l33.73 0.039062c0.71875 0 1.332-0.027344 2.0859-0.0625l97.605-0.09375v-0.003906h0.49609c19.547-0.35938 61.957 1.2227 84.652-29.262l0.015625-0.023437c19.547-26.273 18.711-72.016 19.047-100.69 0.003906-0.11328 0.003906-0.22266 0.003906-0.33594l0.023438-462.34-56.504-40.953v0.015625-0.015625 0.015625z"/>
</svg>
