<?xml version="1.0" encoding="UTF-8"?>
<svg width="1200pt" height="1200pt" version="1.1" viewBox="0 0 1200 1200" xmlns="http://www.w3.org/2000/svg">
 <path d="m894.52 595.36c-8.1094-64.734-59.438-115.55-124.26-123-14.719-1.4531-29.578-0.5625-44.016 2.625-34.031-34.172-80.25-53.438-128.48-53.625-48.234-0.14062-94.594 18.797-128.86 52.781-7.7344-1.3594-15.562-2.0156-23.391-2.0156-73.266-0.32812-134.53 55.5-141.05 128.44-6.5156 72.984 43.922 138.74 116.06 151.45v156.98c0.046874 26.344 21.375 47.672 47.719 47.766h263.53c26.344-0.09375 47.672-21.422 47.719-47.766v-157.64c73.641-13.266 124.08-81.703 115.03-156zm-424.03 311.39v-69.984h259.03v69.984zm298.64-204.37c-23.203 3.7969-40.125 24.094-39.609 47.625v37.5h-259.03v-37.5c0.28125-23.531-16.547-43.781-39.75-47.766-46.969-7.4531-80.297-49.828-76.406-97.266 3.8438-47.391 43.594-83.859 91.172-83.578 5.3438 0 10.734 0.46875 15.984 1.3594 15.141 2.9062 30.703-1.7812 41.766-12.516 24.891-25.125 58.781-39.281 94.172-39.281s69.328 14.156 94.219 39.281c11.344 11.672 27.938 16.641 43.875 13.125 9.6562-2.0156 19.547-2.4844 29.344-1.3594 45.188 5.1562 79.641 42.844 80.719 88.266 1.0781 45.469-31.594 84.703-76.453 91.969z"/>
 <path d="m985.13 168.37h-409.13c-15.938-26.156-44.391-42.094-75-42h-286.13c-48.328 0-87.516 39.188-87.516 87.516v772.22c0 48.328 39.188 87.516 87.516 87.516h770.26c48.328 0 87.516-39.188 87.516-87.516v-730.22c0-48.328-39.188-87.516-87.516-87.516zm37.5 87.516v63.375c-11.672-5.6719-24.516-8.625-37.5-8.625h-314.26c-14.156-0.09375-27.047-8.1094-33.375-20.766l-35.766-71.484h383.39c20.719 0 37.5 16.781 37.5 37.5zm0 730.26v-0.046876c0 20.719-16.781 37.5-37.5 37.5h-770.26c-20.719 0-37.5-16.781-37.5-37.5v-772.22c0-20.719 16.781-37.5 37.5-37.5h286.64c14.156 0 27.141 8.0156 33.469 20.719l57.656 115.41c14.812 29.625 45.094 48.375 78.234 48.375h314.26c20.719 0 37.5 16.781 37.5 37.5z"/>
</svg>
