<?xml version="1.0" encoding="UTF-8"?>
<svg width="1200pt" height="1200pt" version="1.1" viewBox="0 0 1200 1200" xmlns="http://www.w3.org/2000/svg">
 <path d="m978.88 151.09v919.09h-814.88c0.3125 16.84 7.25 32.883 19.305 44.648 12.051 11.766 28.254 18.312 45.102 18.219h807.66v-981.96z"/>
 <path d="m465.6 367.26c-0.55859 6.4297-4.3828 12.125-10.129 15.07-5.7461 2.9414-12.602 2.7266-18.148-0.57812-10.742-6.5117-23.062-9.9531-35.625-9.957-42.789 0-77.57 39.957-77.57 89.062h0.003906c-1.2734 21.344 5.5977 42.375 19.227 58.852 13.625 16.477 32.996 27.172 54.195 29.93h99.32v37.5h-81.355v100.63h277.84v-119.64c0-4.6484 1.7266-9.1289 4.8438-12.578 3.1211-3.4453 7.4062-5.6133 12.031-6.0781 20.598-3.5938 39.172-14.594 52.223-30.926 13.051-16.336 19.676-36.879 18.633-57.762 0-49.105-34.781-89.062-77.57-89.062h0.003906c-13.402 0.027344-26.5 3.9688-37.688 11.344-5.5703 3.5664-12.605 3.9414-18.516 0.97656-5.9141-2.9609-9.8281-8.8164-10.305-15.414-0.43359-23.043-9.4766-45.086-25.352-61.793-15.871-16.711-37.422-26.871-60.41-28.488-22.828 1.3711-44.305 11.277-60.172 27.746-15.863 16.469-24.961 38.305-25.477 61.168z"/>
 <path d="m163.93 891.77h777.45v140.93h-777.45z"/>
 <path d="m163.93 377.72v476.55h777.45v-787.31h-468.09zm506.25-37.93c10.777-3.625 22.066-5.4805 33.434-5.4961 63.449 0 115.07 56.773 115.07 126.56h-0.003906c0.96094 27.301-7.1172 54.152-22.988 76.387-15.867 22.234-38.633 38.609-64.762 46.578v122.7c0 4.9727-1.9727 9.7422-5.4883 13.258-3.5195 3.5156-8.2891 5.4922-13.262 5.4922h-315.41c-4.9727 0-9.7422-1.9766-13.258-5.4922s-5.4922-8.2852-5.4922-13.258v-121.88c-26.91-7.3672-50.559-23.586-67.125-46.035-16.566-22.453-25.086-49.828-24.188-77.715 0-69.789 51.617-126.56 115.07-126.56h-0.003906c10.43 0.015625 20.797 1.5664 30.77 4.6133 6.0508-27.23 21.016-51.664 42.52-69.426 21.508-17.762 48.324-27.84 76.207-28.637 27.941 1.0703 54.746 11.352 76.238 29.242 21.492 17.887 36.469 42.379 42.598 69.664z"/>
 <path d="m420.38 66.957h-119.32c-36.367 0-71.242 14.445-96.957 40.16-25.715 25.715-40.164 60.59-40.164 96.957v120.51z"/>
</svg>
