<?xml version="1.0" encoding="UTF-8"?>
<svg width="1200pt" height="1200pt" version="1.1" viewBox="0 0 1200 1200" xmlns="http://www.w3.org/2000/svg">
 <path d="m745.31 118.36h-449.9c-21.328 0.09375-38.531 17.344-38.625 38.625v731.9h488.53zm-439.78 711.24v-651.89c0-5.8594 4.7344-10.547 10.547-10.547h369.94c5.8125 0 10.547 4.6875 10.547 10.547v651.89c0 5.8125-4.7344 10.547-10.547 10.547h-369.94c-5.8125 0-10.547-4.7344-10.547-10.547zm599.06-759.05h-42.469v866.21h42.469c23.438-0.09375 42.422-19.031 42.516-42.469v-781.26c-0.09375-23.438-19.078-42.422-42.516-42.469zm-63.609 859.78 0.046875-853.36-74.625 37.312v778.69l74.625 37.312zm-588.14 199.22 496.36-0.046875v-170.39h-496.31v170.39zm460.08-219.47-423.79-0.09375v28.078h423.84v-28.078zm-361.22 144.89 0.046876-0.09375c-5.8125 0-10.547-4.7344-10.547-10.547s4.7344-10.547 10.547-10.547h298.64c5.8125 0 10.547 4.7344 10.547 10.547s-4.7344 10.547-10.547 10.547zm71.859-723.61 0.046874-0.09375c9.4219 9.4219 10.875 24.188 3.4688 35.25-7.3594 11.109-21.562 15.422-33.891 10.312-12.281-5.1094-19.312-18.188-16.688-31.266 2.5781-13.031 14.062-22.453 27.375-22.453 7.4062 0 14.484 2.9062 19.734 8.1562zm57.188-8.1562 0.046874-0.09375c13.312 0 24.75 9.4219 27.328 22.453 2.625 13.078-4.3594 26.109-16.688 31.219-12.281 5.1094-26.484 0.79688-33.844-10.266-7.4062-11.062-5.9531-25.828 3.4688-35.25 5.2031-5.25 12.328-8.1562 19.734-8.1562zm-5.4375-20.812 0.046874-0.09375c-11.062 1.2188-21.375 6.1875-29.203 14.062-1.3594 1.3594-2.625 2.7656-3.8438 4.2656-1.1719-1.5-2.4375-2.9062-3.7969-4.2656-17.906-17.906-46.547-19.172-66.047-2.9531-19.453 16.266-23.297 44.672-8.8594 65.531h-36.984v-190.69h348.84v190.69h-154.4c8.4375-12.234 10.922-27.656 6.6562-41.906-4.2188-14.25-14.672-25.781-28.453-31.406l13.125-17.203c3.5156-4.6406 2.625-11.25-2.0156-14.766-4.6406-3.5625-11.25-2.625-14.766 2.0156l-20.297 26.672zm-68.719 493.03-0.75-0.1875c-23.25-24.562-27.656-61.5-10.781-90.891 16.969-29.297 51.141-44.016 84.094-36.141l0.51562 0.5625c-6.0469 1.2188-11.953 3-17.625 5.3438-20.016 8.1562-36.75 22.734-47.531 41.484-0.14062 0.1875-0.23437 0.42188-0.32812 0.65625v-0.046875c-13.734 24.094-16.5 52.922-7.6406 79.219zm80.109 19.312c-7.2188 2.5781-14.812 4.0312-22.5 4.3125h-5.8125c-5.0156-0.1875-9.9844-0.89062-14.859-2.0625l-0.51563-0.5625 1.2188-0.23438c11.438-2.4844 22.406-7.0312 32.25-13.406 2.8594 3.9844 6.0469 7.7344 9.4688 11.156l0.75 0.75zm129.71-53.297c-5.2031 33.188-33.75 57.656-67.312 57.656-33.609 0-62.156-24.469-67.359-57.656zm-57.562-21.047c-0.5625-25.219-10.922-49.266-28.875-67.031l-0.60938-0.60938c-5.625-5.4844-11.906-10.219-18.656-14.156-0.1875-0.14062-0.375-0.23438-0.5625-0.375-22.406-12.938-49.031-16.453-74.016-9.75-24.984 6.6562-46.266 23.016-59.203 45.422l-0.09375 0.14062c-24.094 41.859-13.875 95.062 24 125.06h-74.156v-190.74h348.84v190.69h-68.812c1.875-1.5938 3.75-3.2812 5.4844-5.0625 16.734-16.688 26.156-39.422 26.109-63.094 0-5.8125-4.7344-10.547-10.547-10.547zm-39.609 0c3.4219-16.828 2.3438-34.266-3.1406-50.578l0.75 0.1875c4.9688 5.25 9.1406 11.109 12.422 17.531 5.25 10.172 8.1562 21.422 8.5312 32.859zm-48.891 0c-5.8125 0-10.5 4.7344-10.547 10.547 0 11.484 2.2031 22.828 6.5156 33.469-8.0625 5.3906-17.062 9.1875-26.531 11.25-3.2344 0.70312-6.5625 1.1719-9.8906 1.4531-10.688-22.5-9.7031-48.797 2.5781-70.453l0.28125-0.51562v0.046875c8.4375-14.719 21.562-26.156 37.219-32.578 7.2656-2.9531 14.953-4.8281 22.781-5.4375 7.7344 16.266 9.4219 34.781 4.8281 52.219zm7.0312-246.37v113.3h-67.641v-113.34l33.844-39.328 33.844 39.328zm-41.859-62.203-43.781 50.906c-1.9688 1.9688-3.0938 4.6406-3.0938 7.4531v117.14h-62.016v-207.28h348.84v207.24h-176.95v-117.14c0-2.8125-1.125-5.4844-3.0938-7.4531l-43.781-50.906c-0.1875-0.23438-0.375-0.42188-0.60937-0.65625-0.79688-0.79688-1.7344-1.4531-2.7656-1.9688l-0.14062-0.09375-0.1875-0.09375v0.046874c-0.98438-0.46875-2.0625-0.75-3.1406-0.84375h-2.1562c-1.0781 0.09375-2.1562 0.375-3.1406 0.84375l-0.1875 0.09375-0.14063 0.09375v-0.046874c-1.0312 0.51562-1.9688 1.1719-2.7656 1.9688-0.32813 0.1875-0.60938 0.42187-0.89063 0.65625z" fill-rule="evenodd"/>
</svg>
