<?xml version="1.0" encoding="UTF-8"?>
<svg width="1200pt" height="1200pt" version="1.1" viewBox="0 0 1200 1200" xmlns="http://www.w3.org/2000/svg">
 <path d="m800.02 112.5h-399.98c-75.844 0-137.48 61.641-137.48 137.48v699.98c0 75.844 61.641 137.48 137.48 137.48h399.98c75.844 0 137.48-61.641 137.48-137.48v-699.98c0-75.844-61.641-137.48-137.48-137.48zm62.484 837.52c0 34.453-28.031 62.484-62.484 62.484h-399.98c-34.453 0-62.484-28.031-62.484-62.484v-412.5h525v412.5zm0-487.5h-525v-212.48c0-34.453 28.031-62.484 62.484-62.484h399.98c34.453 0 62.484 28.031 62.484 62.484v212.48zm-450 237.47v-50.016c0-20.719 16.781-37.5 37.5-37.5s37.5 16.781 37.5 37.5v50.016c0 20.719-16.781 37.5-37.5 37.5s-37.5-16.781-37.5-37.5zm75-399.98v50.016c0 20.719-16.781 37.5-37.5 37.5s-37.5-16.781-37.5-37.5v-50.016c0-20.719 16.781-37.5 37.5-37.5s37.5 16.781 37.5 37.5z"/>
</svg>
