<?xml version="1.0" encoding="UTF-8"?>
<svg width="1200pt" height="1200pt" version="1.1" viewBox="0 0 1200 1200" xmlns="http://www.w3.org/2000/svg">
 <path d="m1146.9 743.48-113.5-65.52c9.1875-51.594 9.1875-104.41 0-156l113.5-65.52c5.7344-3.3086 10.172-8.4805 12.566-14.656 2.3945-6.1758 2.6094-12.984 0.60547-19.297-25.891-81.191-69.047-155.82-126.5-218.75-4.4688-4.8906-10.473-8.1094-17.02-9.1211-6.5508-1.0117-13.246 0.24609-18.98 3.5625l-113.41 65.496c-40.043-33.793-85.754-60.223-135.02-78.062v-130.98c0-6.6328-2.2656-13.07-6.4297-18.234-4.1602-5.168-9.9648-8.7539-16.445-10.164-83.234-18.137-169.4-18.137-252.63 0-6.4805 1.418-12.277 5.0078-16.434 10.176-4.1602 5.168-6.4219 11.602-6.418 18.234v130.96c-49.273 17.836-94.992 44.266-135.04 78.062l-113.45-65.496c-5.7344-3.3164-12.43-4.5742-18.977-3.5625-6.5508 1.0117-12.555 4.2305-17.023 9.1211-57.418 62.949-100.54 137.57-126.41 218.75-2.0039 6.3164-1.7891 13.125 0.60937 19.301 2.3984 6.1758 6.8359 11.344 12.578 14.652l113.48 65.52c-9.2109 51.594-9.2109 104.41 0 156l-113.55 65.52c-5.7383 3.3125-10.176 8.4844-12.57 14.664-2.3984 6.1758-2.6094 12.988-0.60156 19.305 25.895 81.188 69.047 155.82 126.5 218.75 4.4688 4.8906 10.473 8.1094 17.02 9.1211 6.5508 1.0117 13.246-0.24609 18.98-3.5625l113.41-65.496c40.055 33.793 85.781 60.219 135.06 78.051v130.99c-0.003906 6.6289 2.2578 13.059 6.4141 18.223 4.1523 5.168 9.9492 8.7539 16.422 10.172 83.227 18.23 169.41 18.23 252.63 0 6.4766-1.4141 12.273-5 16.43-10.168 4.1602-5.1641 6.4219-11.598 6.4219-18.227v-130.99c49.273-17.836 94.996-44.266 135.04-78.062l113.45 65.508c5.7344 3.3164 12.43 4.5742 18.977 3.5625 6.5508-1.0117 12.555-4.2305 17.023-9.1211 57.418-62.949 100.54-137.57 126.41-218.75 2.0117-6.3086 1.8086-13.117-0.57812-19.297-2.3867-6.1758-6.8125-11.352-12.543-14.672zm-140.95 195.97-110.92-64.082c-5.3945-3.1172-11.648-4.4219-17.84-3.7109-6.1914 0.70703-11.992 3.3867-16.543 7.6406-42.516 39.656-93.48 69.133-149.05 86.211-5.957 1.8125-11.176 5.4922-14.883 10.496s-5.707 11.066-5.707 17.293v128.09c-60.223 10.395-121.78 10.395-182 0v-128.02c0-6.2266-2.0039-12.289-5.7109-17.293s-8.9219-8.6836-14.879-10.496c-55.625-17.062-106.64-46.547-149.19-86.223-4.5547-4.2578-10.352-6.9336-16.543-7.6406-6.1914-0.71094-12.445 0.59375-17.84 3.7109l-110.91 64.031c-39.164-46.914-69.98-100.21-91.098-157.55l110.92-64.031v0.003907c5.3945-3.1133 9.6445-7.875 12.129-13.586 2.4844-5.7109 3.0664-12.066 1.6641-18.133-13.004-56.719-13.004-115.64 0-172.36 1.4023-6.0664 0.82031-12.426-1.6641-18.137-2.4844-5.707-6.7344-10.469-12.129-13.582l-110.92-64.043v0.003906c21.125-57.344 51.938-110.63 91.098-157.54l110.92 64.043c5.3945 3.1172 11.648 4.4219 17.84 3.7148 6.1914-0.71094 11.992-3.3867 16.543-7.6445 42.512-39.656 93.477-69.137 149.05-86.211 5.957-1.8125 11.176-5.4922 14.883-10.496 3.707-5.0039 5.707-11.066 5.707-17.293v-128.05c60.223-10.402 121.78-10.402 182 0v128.02c0 6.2266 2.0039 12.289 5.7109 17.293 3.707 5 8.9219 8.6797 14.879 10.496 55.625 17.062 106.64 46.547 149.19 86.223 4.5547 4.2539 10.352 6.9336 16.543 7.6406 6.1914 0.70703 12.445-0.59375 17.84-3.7109l110.91-64.031c39.164 46.91 69.98 100.2 91.098 157.54l-110.91 64.043 0.003907-0.003907c-5.3984 3.1094-9.6523 7.8711-12.141 13.582-2.4844 5.7109-3.0703 12.07-1.668 18.137 13.004 56.719 13.004 115.64 0 172.36-1.4023 6.0664-0.81641 12.426 1.668 18.137 2.4883 5.7109 6.7422 10.473 12.141 13.582l110.91 64.031-0.003907-0.003907c-21.121 57.348-51.934 110.64-91.098 157.55zm-406-590.43c-66.551 0-130.38 26.438-177.44 73.492-47.059 47.059-73.5 110.88-73.5 177.43-0.003906 66.551 26.43 130.38 73.484 177.44s110.88 73.504 177.43 73.512c66.551 0.003906 130.38-26.426 177.44-73.477 47.066-47.055 73.512-110.88 73.52-177.43-0.066406-66.535-26.523-130.33-73.57-177.38-47.043-47.055-110.83-73.52-177.37-73.598zm0 443.72c-38.129 0-75.406-11.309-107.11-32.492-31.703-21.188-56.414-51.297-71.004-86.527-14.59-35.227-18.406-73.992-10.961-111.39 7.4414-37.398 25.805-71.75 52.77-98.711 26.965-26.957 61.32-45.316 98.719-52.75 37.398-7.4336 76.16-3.6133 111.39 10.984 35.227 14.598 65.332 39.312 86.512 71.023 21.18 31.707 32.477 68.984 32.469 107.11-0.066406 51.105-20.398 100.1-56.539 136.23-36.141 36.133-85.137 56.457-136.24 56.516z"/>
</svg>
