<?xml version="1.0" encoding="UTF-8"?>
<svg width="1200pt" height="1200pt" version="1.1" viewBox="0 0 1200 1200" xmlns="http://www.w3.org/2000/svg">
 <path d="m1024.8 124.8h-86.398l-0.003906-28.801c0-25.199-20.398-45.602-45.602-45.602-25.199 0-45.602 20.398-45.602 45.602v28.801h-201.59v-28.801c0-25.199-20.398-45.602-45.602-45.602-25.199 0-45.602 20.402-45.602 45.602v28.801h-202.8v-28.801c0-25.199-20.398-45.602-45.602-45.602-25.199 0-44.398 20.402-44.398 45.602v28.801h-86.398c-80.398 0-145.2 64.801-145.2 145.2v734.4c0 80.398 64.801 145.2 145.2 145.2h849.6c80.398 0 145.2-64.801 145.2-145.2l-0.003906-734.4c0-80.398-64.801-145.2-145.2-145.2zm-849.6 90h86.398v28.801c0 25.199 20.398 45.602 45.602 45.602 25.199 0 45.602-20.398 45.602-45.602v-28.801h202.8v28.801c0 25.199 20.398 45.602 45.602 45.602 25.199 0 45.602-20.398 45.602-45.602v-28.801h202.8v28.801c0 25.199 20.398 45.602 45.602 45.602 25.199 0 45.602-20.398 45.602-45.602v-28.801h86.398c30 0 55.199 25.199 55.199 55.199v85.199h-962.41v-85.199c0-31.199 25.199-55.199 55.199-55.199zm849.6 843.6h-849.6c-30 0-55.199-25.199-55.199-55.199v-558h960v559.2c0 30-25.199 54-55.199 54z"/>
 <path d="m373.2 544.8h-109.2c-20.398 0-37.199 16.801-37.199 37.199v84c0 20.398 16.801 37.199 37.199 37.199h109.2c20.398 0 37.199-16.801 37.199-37.199v-84c0-21.602-16.797-37.199-37.199-37.199z"/>
 <path d="m936 544.8h-109.2c-20.398 0-37.199 16.801-37.199 37.199v84c0 20.398 16.801 37.199 37.199 37.199h109.2c20.398 0 37.199-16.801 37.199-37.199v-84c0-21.602-16.801-37.199-37.199-37.199z"/>
 <path d="m655.2 544.8h-109.2c-20.398 0-37.199 16.801-37.199 37.199v84c0 20.398 16.801 37.199 37.199 37.199h109.2c20.398 0 37.199-16.801 37.199-37.199v-84c-1.1992-21.602-18-37.199-37.199-37.199z"/>
 <path d="m373.2 801.6h-109.2c-20.398 0-37.199 16.801-37.199 37.199v84c0 20.398 16.801 37.199 37.199 37.199h109.2c20.398 0 37.199-16.801 37.199-37.199v-84c0-20.402-16.797-37.199-37.199-37.199z"/>
 <path d="m936 801.6h-109.2c-20.398 0-37.199 16.801-37.199 37.199v84c0 20.398 16.801 37.199 37.199 37.199h109.2c20.398 0 37.199-16.801 37.199-37.199v-84c0-20.402-16.801-37.199-37.199-37.199z"/>
 <path d="m655.2 801.6h-109.2c-20.398 0-37.199 16.801-37.199 37.199v84c0 20.398 16.801 37.199 37.199 37.199h109.2c20.398 0 37.199-16.801 37.199-37.199v-84c-1.1992-20.402-18-37.199-37.199-37.199z"/>
</svg>
