<?xml version="1.0" encoding="UTF-8"?>
<svg width="1200pt" height="1200pt" version="1.1" viewBox="0 0 1200 1200" xmlns="http://www.w3.org/2000/svg">
 <path d="m600 150c-38.625 0-75.703 15.375-103.03 42.656l-286.64 286.64c-38.625 38.625-60.328 91.078-60.328 145.69v300c0 68.766 56.25 125.02 125.02 125.02h650.02c68.719 0 125.02-56.25 125.02-125.02v-300c-0.046875-54.609-21.75-107.06-60.375-145.69l-286.64-286.64c-27.328-27.281-64.406-42.656-103.03-42.656zm0 50.016c25.406 0 49.734 10.078 67.688 28.031l286.64 286.64c29.25 29.25 45.656 68.906 45.656 110.3v300c0 41.719-33.281 75-75 75h-174.98v-225c0-41.109-33.891-75-75-75h-150c-41.109 0-75 33.891-75 75v225h-174.98c-41.719 0-75-33.281-75-75v-300c0-41.391 16.406-81.047 45.703-110.34l286.6-286.6c17.953-17.953 42.281-28.031 67.688-28.031zm-75 549.98h150c14.109 0 24.984 10.875 24.984 24.984v225h-199.97v-225c0-14.109 10.875-24.984 24.984-24.984z"/>
</svg>
