<?xml version="1.0" encoding="UTF-8"?>
<svg width="1200pt" height="1200pt" version="1.1" viewBox="0 0 1200 1200" xmlns="http://www.w3.org/2000/svg">
 <path d="m975 487.5v-169.87c0-17.578-3.9844-34.453-11.812-50.156l-25.688-51.328v-66.141c0-41.344-33.656-75-75-75h-75c-41.344 0-75 33.656-75 75v66.141l-24.094 48.281c-4.4531-0.5625-8.8125-1.9219-13.406-1.9219-59.203 0-105.19 48.703-129.89 103.27l-109.41-211.18c-25.734-50.016-76.734-81.094-133.08-81.094-24.281 0-47.531 5.7188-68.953 16.969-73.453 38.016-102.38 128.63-64.406 202.03l101.02 195h-45.234c-41.344 0-75 33.656-75 75v75c0 27.656 15.188 51.562 37.5 64.594v310.4c0 62.016 50.484 112.5 112.5 112.5h600c62.016 0 112.5-50.484 112.5-112.5v-310.4c22.312-13.031 37.5-36.938 37.5-64.594v-75c0-41.344-33.656-75-75-75zm-187.5-337.5h75v37.5h-75zm-14.344 112.5h103.64l19.266 38.531c2.625 5.25 3.8906 10.688 3.8906 16.594v169.87h-80.344c3.1406-12.188 5.3438-24.656 5.3438-37.5 0-49.219-25.641-114.42-68.953-153.19zm-98.156 75c5.9531 0 12.094 1.9219 19.078 6.2344 29.25 16.922 55.922 67.594 55.922 106.27 0 13.359-3.6562 26.203-10.266 37.5h-129.47c-6.6094-11.297-10.266-24.141-10.266-37.5 0-46.453 38.766-112.5 75-112.5zm-439.22-79.453c-18.938-36.656-4.4531-81.984 32.438-101.06 35.859-18.75 82.453-3.75 100.83 32.016l15.703 30.328-37.969 19.641c-18.375 9.5156-25.594 32.156-16.031 50.531 6.6562 12.844 19.781 20.25 33.328 20.25 5.8125 0 11.719-1.3594 17.203-4.2188l37.969-19.641 27.469 52.969-33.281 17.25c-18.422 9.5156-25.594 32.156-16.078 50.531 6.6562 12.891 19.781 20.297 33.328 20.297 5.8125 0 11.719-1.3594 17.156-4.2188l33.328-17.25 42.469 82.031h-169.03l-118.88-229.45zm701.72 754.45c0 20.672-16.828 37.5-37.5 37.5h-600c-20.672 0-37.5-16.828-37.5-37.5v-300h675zm37.5-375h-750v-75h750zm-262.5 300v-112.5c0-20.719 16.781-37.5 37.5-37.5s37.5 16.781 37.5 37.5v112.5c0 20.719-16.781 37.5-37.5 37.5s-37.5-16.781-37.5-37.5zm-300 0v-112.5c0-20.719 16.781-37.5 37.5-37.5s37.5 16.781 37.5 37.5v112.5c0 20.719-16.781 37.5-37.5 37.5s-37.5-16.781-37.5-37.5zm150 0v-112.5c0-20.719 16.781-37.5 37.5-37.5s37.5 16.781 37.5 37.5v112.5c0 20.719-16.781 37.5-37.5 37.5s-37.5-16.781-37.5-37.5z"/>
</svg>
