<?xml version="1.0" encoding="UTF-8"?>
<svg width="1200pt" height="1200pt" version="1.1" viewBox="0 0 1200 1200" xmlns="http://www.w3.org/2000/svg">
 <path d="m1200 408.75v-243.75c0-28.75-20-53.75-47.5-58.75v-17.5c0-21.25-17.5-38.75-38.75-38.75h-70c-11.25 0-21.25 5-28.75 12.5l-38.75 41.25h-266.25c-33.75 0-60 27.5-60 60v243.75c0 18.75 8.75 36.25 23.75 47.5-15 11.25-23.75 28.75-23.75 47.5v185h-320v-160c0-7.5-5-12.5-12.5-12.5h-278.75c-7.5 0-12.5 5-12.5 12.5v160h-13.75c-7.5 0-12.5 5-12.5 12.5v418.75c0 7.5 5 12.5 12.5 12.5h15v56.25c0 7.5 5 12.5 12.5 12.5h1147.5c7.5 0 12.5-5 12.5-12.5v-683.75c0-18.75-8.75-36.25-23.75-47.5 15-11.25 23.75-28.75 23.75-47.5zm-167.5-330c3.75-2.5 7.5-3.75 11.25-3.75h70c7.5 0 13.75 6.25 13.75 13.75v15h-117.5zm-357.5 86.25c0-20 16.25-35 35-35h428.75c20 0 35 16.25 35 35v243.75c0 20-16.25 35-35 35h-428.75c-20 0-35-16.25-35-35v-243.75zm500 941.25h-500v-602.5c0-20 16.25-35 35-35h428.75c20 0 35 16.25 35 35 1.25 193.75 1.25 288.75 1.25 602.5zm-1123.8-566.25h253.75v147.5h-253.75zm-26.25 172.5h625v40h-625zm0 65h625v327.5h-625zm27.5 353.75h597.5v43.75h-597.5zm622.5 0h90v43.75h-90zm115 43.75v-43.75h268.75v43.75zm385 0h-90v-43.75h90z"/>
 <path d="m12.5 443.75h525c7.5 0 12.5-5 12.5-12.5v-418.75c0-7.5-5-12.5-12.5-12.5h-525c-7.5 0-12.5 5-12.5 12.5v418.75c0 7.5 5 12.5 12.5 12.5zm12.5-418.75h500v393.75h-500z"/>
 <path d="m487.5 50h-425c-7.5 0-12.5 5-12.5 12.5v318.75c0 7.5 5 12.5 12.5 12.5h425c7.5 0 12.5-5 12.5-12.5v-318.75c0-7.5-5-12.5-12.5-12.5zm-412.5 25h145v293.75h-145zm170 293.75v-293.75h60v293.75zm230 0h-145v-293.75h145z"/>
 <path d="m187.5 195c-7.5 0-12.5 5-12.5 12.5v28.75c0 7.5 5 12.5 12.5 12.5s12.5-5 12.5-12.5v-28.75c0-7.5-5-12.5-12.5-12.5z"/>
 <path d="m362.5 248.75c7.5 0 12.5-5 12.5-12.5v-28.75c0-7.5-5-12.5-12.5-12.5s-12.5 5-12.5 12.5v28.75c0 7.5 5 12.5 12.5 12.5z"/>
 <path d="m267.5 565h-178.75c-7.5 0-12.5 5-12.5 12.5v72.5c0 7.5 5 12.5 12.5 12.5h178.75c7.5 0 12.5-5 12.5-12.5v-72.5c0-6.25-5-12.5-12.5-12.5zm-166.25 25h88.75v47.5h-88.75zm153.75 47.5h-40v-47.5h40z"/>
 <path d="m781.25 502.5h-46.25c-18.75-1.25-33.75 12.5-35 31.25-1.25 20 15 36.25 35 35h46.25c18.75 1.25 33.75-12.5 35-31.25 1.25-20-15-36.25-35-35zm0 41.25h-46.25c-5 0-8.75-2.5-8.75-7.5-1.25-5 3.75-10 8.75-8.75h46.25c5 0 8.75 2.5 8.75 7.5 1.25 5-3.75 10-8.75 8.75z"/>
 <path d="m735 220h46.25c18.75 1.25 33.75-12.5 35-31.25 1.25-20-15-36.25-35-35h-46.25c-18.75-1.25-33.75 12.5-35 31.25-2.5 20 15 36.25 35 35zm0-42.5h46.25c5 0 8.75 2.5 8.75 7.5 1.25 5-3.75 10-8.75 8.75h-46.25c-5 0-8.75-2.5-8.75-7.5-1.25-3.75 2.5-8.75 8.75-8.75z"/>
</svg>
