<?xml version="1.0" encoding="UTF-8"?>
<svg width="1200pt" height="1200pt" version="1.1" viewBox="0 0 1200 1200" xmlns="http://www.w3.org/2000/svg">
 <path d="m931.49 1156.5h-189.73c-9.9492 0.007812-19.492-3.9414-26.523-10.977-7.0352-7.0312-10.984-16.574-10.977-26.523v-259.86c0-37.25-19.875-71.668-52.133-90.293-32.258-18.625-72-18.625-104.26 0-32.258 18.625-52.133 53.043-52.133 90.293v259.86-0.003906c0.003907 9.9492-3.9453 19.488-10.98 26.52-7.0312 7.0352-16.57 10.984-26.52 10.98h-189.73c-32.812-0.035157-64.266-13.082-87.469-36.281-23.203-23.195-36.254-54.652-36.293-87.461v-568.93c-42.875 44.691-101.85-9.9688-57.68-50.688 42.48-30.898 339.51-250.95 418.89-309.37h-0.003907c21.652-21.969 50.402-35.539 81.125-38.293 30.723-2.75 61.426 5.4922 86.637 23.262 98.492 72.957 384.39 283.88 439.34 324.48 43.953 40.633-15.082 95.332-57.824 50.574l0.003906 568.96c-0.039062 32.809-13.09 64.258-36.289 87.457-23.195 23.199-54.648 36.246-87.457 36.285zm-152.23-75h152.23c12.926-0.011719 25.316-5.1523 34.453-14.289 9.1406-9.1406 14.277-21.531 14.293-34.453v-624.21l-351.11-259.44c-13.398-9.9023-30.902-12.336-46.492-6.4609-3.0312-2.8867-350.21 257.75-362.9 265.91l0.003906 624.2c0.015625 12.926 5.1602 25.316 14.301 34.453s21.535 14.277 34.461 14.289h152.23l-0.003907-222.36c0.35547-47.316 19.398-92.57 52.984-125.9 33.582-33.332 78.98-52.031 126.3-52.027 47.312 0.003907 92.707 18.715 126.29 52.051 33.574 33.34 52.609 78.598 52.953 125.91zm-97.555-631.97h-163.39c-13.27-0.1875-25.453-7.375-32.035-18.902-6.582-11.523-6.582-25.672 0-37.195 6.582-11.527 18.766-18.715 32.035-18.902h163.38c13.273 0.1875 25.457 7.375 32.039 18.902 6.582 11.523 6.582 25.672 0 37.195-6.582 11.527-18.766 18.715-32.035 18.902z"/>
</svg>
