<?xml version="1.0" encoding="UTF-8"?>
<svg width="1200pt" height="1200pt" version="1.1" viewBox="0 0 1200 1200" xmlns="http://www.w3.org/2000/svg">
 <path d="m735.75 431.81c28.312-37.125 39.188-83.438 29.438-120.94-27.188 0.375-55.5 11.625-79.5 30.75 1.125 9 1.875 18.188 1.875 27.562 0 47.25-15.75 90-41.25 120.75 33-6.375 66-27.188 89.438-58.125z"/>
 <path d="m514.31 341.62c-24.188-18.938-52.312-30.188-79.5-30.75-9.75 37.5 1.125 83.812 29.438 120.94 23.438 30.938 56.438 51.75 89.438 58.125-25.5-30.75-41.25-73.5-41.25-120.75 0-9.375 0.75-18.562 1.875-27.562z"/>
 <path d="m956.25 75h-712.5c-20.625 0-37.5 16.875-37.5 37.5v975c0 20.625 16.875 37.5 37.5 37.5h712.5c20.625 0 37.5-16.875 37.5-37.5v-975c0-20.625-16.875-37.5-37.5-37.5zm-581.25 932.81h-56.25c-10.312 0-18.75-8.4375-18.75-18.75s8.4375-18.75 18.75-18.75h56.25c10.312 0 18.75 8.4375 18.75 18.75s-8.4375 18.75-18.75 18.75zm0-112.5h-56.25c-10.312 0-18.75-8.4375-18.75-18.75s8.4375-18.75 18.75-18.75h56.25c10.312 0 18.75 8.4375 18.75 18.75s-8.4375 18.75-18.75 18.75zm0-112.5h-56.25c-10.312 0-18.75-8.4375-18.75-18.75s8.4375-18.75 18.75-18.75h56.25c10.312 0 18.75 8.4375 18.75 18.75s-8.4375 18.75-18.75 18.75zm0-112.5h-56.25c-10.312 0-18.75-8.4375-18.75-18.75s8.4375-18.75 18.75-18.75h56.25c10.312 0 18.75 8.4375 18.75 18.75s-8.4375 18.75-18.75 18.75zm59.438-215.62c-43.5-57-51.75-127.69-26.438-178.88 37.688-7.125 79.5 2.25 116.06 26.25 14.625-41.25 41.625-74.25 75.938-91.125 34.312 16.875 61.5 49.875 75.938 91.125 36.562-24.188 78.375-33.562 116.06-26.25 25.312 51.188 17.062 121.88-26.438 178.88-38.812 50.625-95.25 77.25-146.81 74.625v-165.19c0-10.5-8.4375-18.75-18.75-18.75s-18.75 8.25-18.75 18.75v165.19c-51.562 2.625-108-24-146.81-74.625zm446.81 553.12h-412.5c-10.312 0-18.75-8.4375-18.75-18.75s8.4375-18.75 18.75-18.75h412.5c10.312 0 18.75 8.4375 18.75 18.75s-8.4375 18.75-18.75 18.75zm0-112.5h-412.5c-10.312 0-18.75-8.4375-18.75-18.75s8.4375-18.75 18.75-18.75h412.5c10.312 0 18.75 8.4375 18.75 18.75s-8.4375 18.75-18.75 18.75zm0-112.5h-412.5c-10.312 0-18.75-8.4375-18.75-18.75s8.4375-18.75 18.75-18.75h412.5c10.312 0 18.75 8.4375 18.75 18.75s-8.4375 18.75-18.75 18.75zm0-112.5h-412.5c-10.312 0-18.75-8.4375-18.75-18.75s8.4375-18.75 18.75-18.75h412.5c10.312 0 18.75 8.4375 18.75 18.75s-8.4375 18.75-18.75 18.75z"/>
</svg>
