<?xml version="1.0" encoding="UTF-8"?>
<svg width="1200pt" height="1200pt" version="1.1" viewBox="0 0 1200 1200" xmlns="http://www.w3.org/2000/svg">
 <path d="m360 96c-26.578 0-48 21.422-48 48v144c0 26.578 21.422 48 48 48s48-21.422 48-48v-144c0-26.578-21.422-48-48-48zm480 0c-26.578 0-48 21.422-48 48v144c0 26.578 21.422 48 48 48s48-21.422 48-48v-144c0-26.578-21.422-48-48-48zm-648 120c-39.891 0-72 32.109-72 72v168h960v-168c0-39.891-32.109-72-72-72h-72v72c0 52.359-43.641 96-96 96s-96-43.641-96-96v-72h-288v72c0 52.359-43.641 96-96 96s-96-43.641-96-96v-72zm-72 288v528c0 39.891 32.109 72 72 72h816c39.891 0 72-32.109 72-72v-528zm156 96h144v144h-144zm252 0h144v144h-144zm252 0h144v144h-144zm-504 264h144v144h-144zm252 0h144v144h-144zm252 0h144v144h-144z"/>
</svg>
