<?xml version="1.0" encoding="UTF-8"?>
<svg width="1200pt" height="1200pt" version="1.1" viewBox="0 0 1200 1200" xmlns="http://www.w3.org/2000/svg">
 <path d="m1078.7 827.53c11.531 21 11.062 45.844-1.2188 66.469-12.234 20.625-33.844 32.859-57.844 32.859h-839.26c-24 0-45.609-12.234-57.844-32.859s-12.703-45.469-1.2188-66.469l34.312-63.141c24.844-45.609 37.922-97.078 37.922-148.92v-179.16c0-224.02 182.39-406.31 406.45-406.31 224.06 0 406.45 182.29 406.45 406.45v179.16c0 51.844 13.078 103.31 37.922 148.92l34.312 63.141zm-478.69 342.47c115.22 0 210.24-88.312 220.92-200.76h-441.84c10.688 112.45 105.7 200.76 220.92 200.76z"/>
</svg>
