<?xml version="1.0" encoding="UTF-8"?>
<svg width="1200pt" height="1200pt" version="1.1" viewBox="0 0 1200 1200" xmlns="http://www.w3.org/2000/svg">
 <path d="m1048.2 734.29c-19.922-36.609-30.469-78.141-30.469-119.77v-166.69c0-230.29-187.45-417.71-417.71-417.71-230.34 0-417.74 187.31-417.74 417.56v166.78c0 41.766-10.547 83.156-30.469 119.77l-32.062 58.781c-17.391 31.922-16.688 69.609 1.9219 100.78 18.609 31.219 51.375 49.922 87.703 49.922h145.69c10.078 126.37 116.06 226.22 244.92 226.22 128.86 0 234.84-99.844 244.92-226.22h145.69c36.375 0 69.141-18.609 87.703-49.922 18.609-31.219 19.312-69 1.9219-100.78l-32.062-58.781zm-448.22 396.32c-107.3 0-195.71-82.219-205.69-186.84h411.24c-9.9375 104.62-98.391 186.84-205.55 186.84zm444.47-256.92c-11.391 19.219-31.547 30.609-53.766 30.609h-781.31c-22.312 0-42.375-11.391-53.766-30.609s-11.859-42.375-1.2188-61.922l32.062-58.781c23.062-42.375 35.297-90.375 35.297-138.61v-166.78c0-208.55 169.69-378.37 378.37-378.37s378.37 169.69 378.37 378.37v166.69c0 48.234 12.234 96.234 35.297 138.61l32.062 58.781c10.688 19.547 10.219 42.703-1.2188 61.922z"/>
</svg>
