<?xml version="1.0" encoding="UTF-8"?>
<svg width="1200pt" height="1200pt" version="1.1" viewBox="0 0 1200 1200" xmlns="http://www.w3.org/2000/svg">
 <path d="m501 744h198v375h-198zm471-227.63-372-215.26c-135.84 74.953-366.66 220.87-409.87 229.5v588.37h235.87v-412.5c0.046875-20.672 16.828-37.453 37.5-37.5h273c20.672 0.046875 37.453 16.828 37.5 37.5v412.5h235.87v-588.37c-13.312-2.7188-26.062-7.5469-37.875-14.25zm93.141-175.6-437.29-252.28c-17.109-9.9844-38.25-10.031-55.406-0.14062l-437.81 252.56c-17.203 9.8906-27.75 28.266-27.609 48.094-4.7812 21.891 3.6562 44.531 21.609 57.938 17.906 13.453 42 15.188 61.688 4.5l409.69-236.81 409.69 236.81c73.125 37.641 116.48-72.234 55.453-110.67z"/>
</svg>
