<?xml version="1.0" encoding="UTF-8"?>
<svg width="1200pt" height="1200pt" version="1.1" viewBox="0 0 1200 1200" xmlns="http://www.w3.org/2000/svg">
 <path d="m1136.4 547.2c21.602-36 33.602-76.801 33.602-121.2 0-130.8-106.8-237.6-237.6-237.6h-326.4c-66 0-124.8 26.398-168 69.602-33.602 33.602-56.398 75.602-66 123.6h220.8c163.2 0 295.2 132 295.2 294v10.801c46.801 26.398 109.2 56.398 176.4 74.398 27.602 7.1992 49.199-24 32.398-46.801-19.199-25.199-34.801-55.199-46.801-81.602 34.805-19.199 64.805-49.199 86.402-85.199z"/>
 <path d="m594 438h-326.4c-130.8 0-237.6 106.8-237.6 237.6 0 88.801 49.199 166.8 121.2 207.6-12 26.398-28.801 55.199-46.801 81.602-16.801 22.801 4.8008 54 32.398 46.801 88.801-24 169.2-68.398 216-97.199h242.4c130.8 0 237.6-106.8 237.6-237.6 0.003906-130.8-108-238.8-238.8-238.8z"/>
</svg>
