<?xml version="1.0" encoding="UTF-8"?>
<svg width="1200pt" height="1200pt" version="1.1" viewBox="0 0 1200 1200" xmlns="http://www.w3.org/2000/svg">
 <path d="m1065.6 643.2c64.801-48 104.4-124.8 104.4-206.4 0-141.6-115.2-258-258-258h-306c-134.4 0-244.8 103.2-256.8 235.2h-61.199c-141.6 0-258 115.2-258 258 0 81.602 39.602 158.4 104.4 206.4-9.6016 16.801-18 31.199-27.602 44.398-15.602 21.602-16.801 50.398-1.1992 72 12 18 31.199 27.602 51.602 27.602 6 0 10.801-1.1992 16.801-2.3984 80.398-21.602 153.6-60 204-90h218.4c129.6 0 236.4-96 254.4-219.6 48 27.602 110.4 57.602 177.6 75.602 6 1.1992 10.801 2.3984 16.801 2.3984 20.398 0 39.602-9.6016 51.602-27.602 15.602-21.602 14.398-50.398-1.1992-72-10.801-14.398-20.402-28.797-30-45.598zm-471.6 217.2h-228c-6 0-13.199 1.1992-18 4.8008-34.801 21.602-103.2 60-177.6 82.801 13.199-19.199 26.398-42 38.398-68.398 7.1992-15.602 1.1992-36-14.398-44.398-60-33.602-97.199-97.199-97.199-165.6 0-104.4 85.199-189.6 189.6-189.6h307.2c104.4 0 189.6 85.199 189.6 189.6 0 104.4-85.203 190.8-189.6 190.8zm411.6-259.2c-15.602 8.3984-21.602 27.602-14.398 44.398 12 25.199 25.199 48 38.398 68.398-74.398-22.801-142.8-61.199-177.6-82.801-1.1992-1.1992-2.3984-1.1992-3.6016-1.1992-20.398-122.4-126-216-254.4-216l-176.4 0.003906c10.801-93.602 91.199-166.8 188.4-166.8h306c104.4 0 189.6 85.199 189.6 189.6 0 68.398-37.203 130.8-96 164.4z"/>
</svg>
