<?xml version="1.0" encoding="UTF-8"?>
<svg width="1200pt" height="1200pt" version="1.1" viewBox="0 0 1200 1200" xmlns="http://www.w3.org/2000/svg">
 <path d="m800.02 249.98h-666.71c-54.984 0-99.984 45-99.984 99.984v698.68c0 25.688 14.344 48.656 37.688 60 9.3281 4.3125 19.312 6.6562 29.016 6.6562 14.672 0 29.016-5.0156 40.688-14.344l237.32-184.31h422.02c54.984 0 99.984-45 99.984-99.984v-466.69c0-54.984-45-99.984-99.984-99.984zm33.328 566.68c0 18.328-15 33.328-33.328 33.328h-433.31c-7.3125 0-14.672 2.3438-20.344 6.9844l-246.32 191.68-0.046874-698.63c0-18.328 15-33.328 33.328-33.328h666.66c18.328 0 33.328 15 33.328 33.328v466.69zm333.32-631.97v698.68c0 25.688-14.344 48.656-37.688 60-9.3281 4.3125-18.984 6.6562-29.016 6.6562-14.672 0-29.344-5.0156-41.344-14.672l-112.69-87.328c-14.672-11.344-17.344-32.344-6-46.688 11.344-14.672 32.344-17.344 46.688-6l113.02 87.656 0.046875-698.29c0-18.328-15-33.328-33.328-33.328l-666.37-0.046875c-18.328 0-33.328 15-33.328 33.328s-15 33.328-33.328 33.328-33.328-15-33.328-33.328c0-54.984 45-99.984 99.984-99.984h666.66c54.984 0 99.984 45 99.984 99.984zm-650.02 398.63c0 27.656-22.312 50.016-50.016 50.016-27.656 0-50.016-22.312-50.016-50.016 0-27.656 22.312-50.016 50.016-50.016 27.656 0 50.016 22.312 50.016 50.016zm216.66 0c0 27.656-22.312 50.016-50.016 50.016-27.656 0-50.016-22.312-50.016-50.016 0-27.656 22.312-50.016 50.016-50.016 27.656 0 50.016 22.312 50.016 50.016zm-433.31 0c0 27.656-22.312 50.016-50.016 50.016-27.656 0-50.016-22.312-50.016-50.016 0-27.656 22.312-50.016 50.016-50.016 27.656 0 50.016 22.312 50.016 50.016z"/>
</svg>
