<?xml version="1.0" encoding="UTF-8"?>
<svg width="1200pt" height="1200pt" version="1.1" viewBox="0 0 1200 1200" xmlns="http://www.w3.org/2000/svg">
 <path d="m125 600h101v374c0 82.699 67.301 150 150 150h448.05c82.699 0 150-67.301 150-150v-374h101c20.75 0 39.301-12.801 46.75-32.148 7.3516-19.352 2.0508-41.301-13.398-55.102l-408.35-365.35c-57.051-51.051-143.05-51.051-200.1 0l-408.3 365.35c-15.449 13.801-20.75 35.75-13.398 55.102 7.3984 19.352 26 32.148 46.75 32.148zm384 424v-244c0-27.551 22.398-50 50-50h82.051c27.602 0 50 22.449 50 50v244zm57.648-802.1c19.051-17 47.648-17 66.699 0l310.8 278.1h-20.102c-27.648 0-50 22.398-50 50v424c0 27.551-22.398 50-50 50h-33v-244c0-82.699-67.301-150-150-150h-82.051c-82.699 0-150 67.301-150 150v244h-33c-27.602 0-50-22.449-50-50l0.003906-424c0-27.602-22.352-50-50-50h-20.102l310.8-278.1z"/>
</svg>
