<?xml version="1.0" encoding="UTF-8"?>
<svg width="1200pt" height="1200pt" version="1.1" viewBox="0 0 1200 1200" xmlns="http://www.w3.org/2000/svg">
 <path d="m1026.1 173.94c-73.246-73.262-170.62-113.59-274.21-113.59-103.58 0-200.96 40.332-274.21 113.59-127.86 127.85-147.56 323.52-59.172 472.32l-330.19 330.19c-18.012 18.012-27.938 42.023-27.938 67.633 0 25.609 9.9258 49.621 27.938 67.621 18.012 18.012 42.023 27.938 67.633 27.938s49.633-9.9258 67.633-27.938l330.19-330.2c60.828 36.133 129.47 54.227 198.12 54.227 99.312 0 198.61-37.801 274.2-113.4 73.246-73.246 113.59-170.63 113.59-274.21-0.003906-103.59-40.336-200.95-113.59-274.18zm-838.08 902.21c-8.5078 8.5078-19.906 13.188-32.074 13.188-12.156 0-23.543-4.6914-32.062-13.199-8.5078-8.5078-13.188-19.895-13.188-32.051s4.6914-23.543 13.199-32.062l323.66-323.68c9.3008 11.762 19.273 23.148 30.133 34.008 10.848 10.848 22.234 20.832 33.996 30.121zm802.51-389.36c-131.58 131.57-345.7 131.58-477.28 0-131.58-131.59-131.58-345.71-0.011718-477.29 63.742-63.73 148.5-98.844 238.64-98.844s174.9 35.102 238.63 98.844l0.011718 0.011718c63.742 63.73 98.844 148.49 98.844 238.63s-35.113 174.9-98.844 238.64z"/>
</svg>
