<?xml version="1.0" encoding="UTF-8"?>
<svg width="1200pt" height="1200pt" version="1.1" viewBox="0 0 1200 1200" xmlns="http://www.w3.org/2000/svg">
 <path d="m1038.1 168.7h-35.652v64.512c0 43.078-35.039 78.133-78.121 78.133-43.066 0-78.121-35.051-78.121-78.133v-64.512h-492.44v64.512c0 43.078-35.051 78.133-78.109 78.133-43.094 0-78.133-35.051-78.133-78.133v-64.512h-35.641c-56.266 0-101.89 45.613-101.89 101.88v787.93c0 56.258 45.625 101.87 101.89 101.87h876.21c56.27 0 101.89-45.613 101.89-101.87l0.003906-787.93c0-56.266-45.625-101.88-101.89-101.88zm-23.797 832.56c0 20.363-18.227 36.84-40.766 36.84h-747.11c-22.523 0-40.766-16.477-40.766-36.84v-510.39c0-20.387 18.238-36.898 40.766-36.898h747.12c22.535 0 40.766 16.512 40.766 36.898l-0.003906 510.39z"/>
 <path d="m275.66 270.57c20.594 0 37.355-16.754 37.355-37.367v-156.23c0-20.617-16.754-37.355-37.355-37.355-20.605 0-37.355 16.727-37.355 37.355v156.23c0 20.617 16.75 37.367 37.355 37.367z"/>
 <path d="m924.34 270.57c20.605 0 37.355-16.754 37.355-37.367v-156.23c0-20.617-16.754-37.355-37.355-37.355-20.605 0-37.367 16.727-37.367 37.355v156.23c0 20.617 16.762 37.367 37.367 37.367z"/>
 <path d="m257.1 517.64h197.66v202.27h-197.66z"/>
 <path d="m505.95 517.64h197.65v202.27h-197.65z"/>
 <path d="m257.1 766.26h197.66v202.27h-197.66z"/>
 <path d="m505.95 766.26h197.65v202.27h-197.65z"/>
 <path d="m764.04 517.64h197.65v202.27h-197.65z"/>
 <path d="m764.04 766.26h197.65v202.27h-197.65z"/>
</svg>
