<?xml version="1.0" encoding="UTF-8"?>
<svg width="1200pt" height="1200pt" version="1.1" viewBox="0 0 1200 1200" xmlns="http://www.w3.org/2000/svg">
 <path d="m196.18 55.367h-75.188c-10.375 0-20.328 4.125-27.668 11.461-7.3398 7.3398-11.461 17.293-11.461 27.672v1001.7c0 10.375 4.1211 20.328 11.461 27.668 7.3398 7.3398 17.293 11.461 27.668 11.461h75.188z"/>
 <path d="m494.81 812.02h343.46v81.148h-343.46z"/>
 <path d="m833.12 353.87c7.1367 15.457 12.727 31.578 16.688 48.133l-36.508 8.5508h0.003906c-5.4883-22.512-14.34-44.066-26.25-63.938-0.16797-0.24219-0.39453-0.41406-0.54297-0.67578-16.277-28.273-42.004-49.895-72.652-61.066-30.648-11.168-64.258-11.168-94.906 0-30.648 11.172-56.375 32.793-72.648 61.066-0.16797 0.28125-0.41406 0.46875-0.58203 0.73047-11.902 19.879-20.754 41.43-26.25 63.938l-36.508-8.5703v0.003906c3.9805-16.547 9.5664-32.66 16.688-48.113-36.504 2.8867-69.453 22.977-88.738 54.105-19.281 31.133-22.594 69.582-8.918 103.55 13.676 33.969 42.703 59.398 78.176 68.488 4.1211 0.95703 7.793 3.2852 10.426 6.5938 2.6328 3.3125 4.0664 7.418 4.0703 11.648v176.25h343.61v-176.25c0.003906-4.168 1.3945-8.2188 3.9531-11.508 2.5625-3.293 6.1445-5.6367 10.188-6.6602 35.562-8.9805 64.715-34.387 78.469-68.391 13.758-34.004 10.473-72.531-8.8438-103.71-19.316-31.184-52.348-51.285-88.922-54.113zm-92.961 260.21h-147.24v-37.5h147.24z"/>
 <path d="m233.68 55.367v1080h884.46v-1080zm642.09 556.75v299.81c0 4.9727-1.9727 9.7422-5.4883 13.258-3.5195 3.5156-8.2891 5.4922-13.262 5.4922h-380.96c-4.9727 0-9.7422-1.9766-13.258-5.4922-3.5156-3.5156-5.4922-8.2852-5.4922-13.258v-299.61c-45.449-16.375-80.477-53.285-94.441-99.531-13.965-46.25-5.2266-96.379 23.566-135.17 28.789-38.793 74.238-61.676 122.55-61.703 3.75 0 7.668 0.14844 11.699 0.50781 21.57-31.945 53.031-55.922 89.551-68.25 36.52-12.332 76.074-12.332 112.59 0 36.52 12.328 67.977 36.305 89.551 68.25 4.0508-0.35547 7.9297-0.50781 11.699-0.50781 48.348-0.085938 93.875 22.742 122.72 61.539 28.848 38.797 37.602 88.973 23.598 135.25s-49.109 83.172-94.629 99.465z"/>
</svg>
