<?xml version="1.0" encoding="UTF-8"?>
<svg width="1200pt" height="1200pt" version="1.1" viewBox="0 0 1200 1200" xmlns="http://www.w3.org/2000/svg">
 <path d="m956.25 56.25h-712.5c-30.938 0-56.25 25.312-56.25 56.25v975c0 30.938 25.312 56.25 56.25 56.25h712.5c30.938 0 56.25-25.312 56.25-56.25v-975c0-30.938-25.312-56.25-56.25-56.25zm18.75 1031.2c0 10.312-8.4375 18.75-18.75 18.75h-712.5c-10.312 0-18.75-8.4375-18.75-18.75v-975c0-10.312 8.4375-18.75 18.75-18.75h712.5c10.312 0 18.75 8.4375 18.75 18.75zm-375-541.31c8.4375 1.5 17.062 2.25 25.688 2.25 56.625 0 114.75-30.375 154.69-82.5 46.688-61.125 57.75-139.12 28.312-198.56-2.625-5.25-7.5-9-13.312-10.125-35.438-6.9375-74.625-0.375-110.44 18-17.062-35.625-43.5-64.688-76.688-81.188-5.25-2.625-11.438-2.625-16.688 0-33.375 16.5-59.625 45.562-76.688 81.188-35.812-18.188-75-24.75-110.44-18-5.8125 1.125-10.688 4.875-13.312 10.125-29.438 59.438-18.375 137.44 28.312 198.56 39.75 51.938 98.062 82.312 154.69 82.312 8.625 0 17.25-0.9375 25.688-2.25zm179.06-253.31c18 45.75 7.3125 103.69-28.312 150.56-25.5 33.375-59.812 55.5-94.875 63.938 31.5-35.062 50.438-84.375 50.438-138 0-20.25-2.8125-39.938-7.875-58.5 26.25-14.25 54.75-20.438 80.625-17.812zm-179.06-60.562c42 25.312 68.812 77.812 68.812 136.88 0 49.5-18.938 94.312-50.062 122.44v-127.5c0-10.312-8.4375-18.75-18.75-18.75s-18.75 8.4375-18.75 18.75v127.5c-30.938-28.125-50.062-72.938-50.062-122.44 0-58.875 26.625-111.56 68.812-136.88zm-150.75 210.94c-35.812-46.875-46.5-104.81-28.312-150.56 26.062-2.8125 54.375 3.5625 80.625 17.812-5.0625 18.562-7.875 38.25-7.875 58.5 0 53.625 18.938 102.94 50.438 138-35.25-8.25-69.375-30.562-94.875-63.75zm-55.5 208.31c0 10.312-8.4375 18.75-18.75 18.75h-56.25c-10.312 0-18.75-8.4375-18.75-18.75s8.4375-18.75 18.75-18.75h56.25c10.312 0 18.75 8.4375 18.75 18.75zm506.25 0c0 10.312-8.4375 18.75-18.75 18.75h-412.5c-10.312 0-18.75-8.4375-18.75-18.75s8.4375-18.75 18.75-18.75h412.5c10.312 0 18.75 8.4375 18.75 18.75zm-506.25 112.5c0 10.312-8.4375 18.75-18.75 18.75h-56.25c-10.312 0-18.75-8.4375-18.75-18.75s8.4375-18.75 18.75-18.75h56.25c10.312 0 18.75 8.4375 18.75 18.75zm506.25 0c0 10.312-8.4375 18.75-18.75 18.75h-412.5c-10.312 0-18.75-8.4375-18.75-18.75s8.4375-18.75 18.75-18.75h412.5c10.312 0 18.75 8.4375 18.75 18.75zm-506.25 112.5c0 10.312-8.4375 18.75-18.75 18.75h-56.25c-10.312 0-18.75-8.4375-18.75-18.75s8.4375-18.75 18.75-18.75h56.25c10.312 0 18.75 8.4375 18.75 18.75zm506.25 0c0 10.312-8.4375 18.75-18.75 18.75h-412.5c-10.312 0-18.75-8.4375-18.75-18.75s8.4375-18.75 18.75-18.75h412.5c10.312 0 18.75 8.4375 18.75 18.75zm-506.25 112.5c0 10.312-8.4375 18.75-18.75 18.75h-56.25c-10.312 0-18.75-8.4375-18.75-18.75s8.4375-18.75 18.75-18.75h56.25c10.312 0 18.75 8.4375 18.75 18.75zm506.25 0c0 10.312-8.4375 18.75-18.75 18.75h-412.5c-10.312 0-18.75-8.4375-18.75-18.75s8.4375-18.75 18.75-18.75h412.5c10.312 0 18.75 8.4375 18.75 18.75z"/>
</svg>
