<?xml version="1.0" encoding="UTF-8"?>
<svg width="1200pt" height="1200pt" version="1.1" viewBox="0 0 1200 1200" xmlns="http://www.w3.org/2000/svg">
 <path d="m1009.7 1156.5h-819.37c-9.9375 0-19.5-3.9844-26.531-11.016s-10.969-16.547-10.969-26.484v-623.11c-90.703-7.0781-115.17-144.37-36.891-187.5l437.76-252.56c28.781-16.5 64.172-16.453 92.906 0.14062l436.92 252.05c75.562 40.359 58.922 179.86-36.328 187.82v623.16c0 9.9375-3.9375 19.453-10.969 26.484s-16.594 11.016-26.531 11.016zm-235.64-75h198.14v-608.48l-372.19-215.11-372.19 215.11v608.48h198.14v-414.71c0-9.9375 3.9375-19.5 10.969-26.531s16.594-10.969 26.531-10.969h273.14-0.046875c9.9375 0 19.5 3.9375 26.531 10.969s10.969 16.594 10.969 26.531zm-273.14 0h198.14v-377.21h-198.1zm99-963.1c-3.0469 0-6.0938 0.84375-8.7656 2.3906l-437.76 252.56c-19.875 13.219-7.7812 60.422 18.656 45.281l409.22-236.53c11.625-6.7031 25.875-6.7031 37.5 0l409.69 236.81c27.984 13.875 36.891-32.391 18-45.703l-437.34-252.28c-2.8125-1.6406-5.9531-2.4844-9.1875-2.5312z"/>
</svg>
