<?xml version="1.0" encoding="UTF-8"?>
<svg width="1200pt" height="1200pt" version="1.1" viewBox="0 0 1200 1200" xmlns="http://www.w3.org/2000/svg">
 <path d="m1012.5 150h-100.8v-37.5c0-13.398-7.1484-25.777-18.75-32.477-11.602-6.6992-25.898-6.6992-37.5 0-11.602 6.6992-18.75 19.078-18.75 32.477v37.5h-473.44v-37.5c0-13.398-7.1484-25.777-18.75-32.477-11.602-6.6992-25.898-6.6992-37.5 0-11.602 6.6992-18.75 19.078-18.75 32.477v37.5h-100.76c-29.836 0-58.453 11.852-79.551 32.949-21.098 21.098-32.949 49.715-32.949 79.551v750c0 29.836 11.852 58.453 32.949 79.551 21.098 21.098 49.715 32.949 79.551 32.949h825c29.836 0 58.453-11.852 79.551-32.949 21.098-21.098 32.949-49.715 32.949-79.551v-750c0-29.836-11.852-58.453-32.949-79.551-21.098-21.098-49.715-32.949-79.551-32.949zm37.5 862.5c0 9.9453-3.9492 19.484-10.984 26.516-7.0312 7.0352-16.57 10.984-26.516 10.984h-825c-9.9453 0-19.484-3.9492-26.516-10.984-7.0352-7.0312-10.984-16.57-10.984-26.516v-600h900zm0-675h-900v-75c0-9.9453 3.9492-19.484 10.984-26.516 7.0312-7.0352 16.57-10.984 26.516-10.984h100.76v37.5c0 13.398 7.1484 25.777 18.75 32.477 11.602 6.6992 25.898 6.6992 37.5 0 11.602-6.6992 18.75-19.078 18.75-32.477v-37.5h473.44v37.5c0 13.398 7.1484 25.777 18.75 32.477 11.602 6.6992 25.898 6.6992 37.5 0 11.602-6.6992 18.75-19.078 18.75-32.477v-37.5h100.8c9.9453 0 19.484 3.9492 26.516 10.984 7.0352 7.0312 10.984 16.57 10.984 26.516z"/>
 <path d="m243.75 487.5h75c10.355 0 18.75 10.355 18.75 18.75v75c0 10.355-8.3945 18.75-18.75 18.75h-75c-10.355 0-18.75-10.355-18.75-18.75v-75c0-10.355 8.3945-18.75 18.75-18.75z"/>
 <path d="m456.26 487.5h75c10.355 0 18.75 10.355 18.75 18.75v75c0 10.355-8.3945 18.75-18.75 18.75h-75c-10.355 0-18.75-10.355-18.75-18.75v-75c0-10.355 8.3945-18.75 18.75-18.75z"/>
 <path d="m668.74 487.5h75c10.355 0 18.75 10.355 18.75 18.75v75c0 10.355-8.3945 18.75-18.75 18.75h-75c-10.355 0-18.75-10.355-18.75-18.75v-75c0-10.355 8.3945-18.75 18.75-18.75z"/>
 <path d="m881.25 487.5h75c10.355 0 18.75 10.355 18.75 18.75v75c0 10.355-8.3945 18.75-18.75 18.75h-75c-10.355 0-18.75-10.355-18.75-18.75v-75c0-10.355 8.3945-18.75 18.75-18.75z"/>
 <path d="m243.75 675h75c10.355 0 18.75 10.355 18.75 18.75v75c0 10.355-8.3945 18.75-18.75 18.75h-75c-10.355 0-18.75-10.355-18.75-18.75v-75c0-10.355 8.3945-18.75 18.75-18.75z"/>
 <path d="m456.26 675h75c10.355 0 18.75 10.355 18.75 18.75v75c0 10.355-8.3945 18.75-18.75 18.75h-75c-10.355 0-18.75-10.355-18.75-18.75v-75c0-10.355 8.3945-18.75 18.75-18.75z"/>
 <path d="m668.74 675h75c10.355 0 18.75 10.355 18.75 18.75v75c0 10.355-8.3945 18.75-18.75 18.75h-75c-10.355 0-18.75-10.355-18.75-18.75v-75c0-10.355 8.3945-18.75 18.75-18.75z"/>
 <path d="m881.25 675h75c10.355 0 18.75 10.355 18.75 18.75v75c0 10.355-8.3945 18.75-18.75 18.75h-75c-10.355 0-18.75-10.355-18.75-18.75v-75c0-10.355 8.3945-18.75 18.75-18.75z"/>
 <path d="m243.75 862.5h75c10.355 0 18.75 10.355 18.75 18.75v75c0 10.355-8.3945 18.75-18.75 18.75h-75c-10.355 0-18.75-10.355-18.75-18.75v-75c0-10.355 8.3945-18.75 18.75-18.75z"/>
 <path d="m456.26 862.5h75c10.355 0 18.75 10.355 18.75 18.75v75c0 10.355-8.3945 18.75-18.75 18.75h-75c-10.355 0-18.75-10.355-18.75-18.75v-75c0-10.355 8.3945-18.75 18.75-18.75z"/>
 <path d="m668.74 862.5h75c10.355 0 18.75 10.355 18.75 18.75v75c0 10.355-8.3945 18.75-18.75 18.75h-75c-10.355 0-18.75-10.355-18.75-18.75v-75c0-10.355 8.3945-18.75 18.75-18.75z"/>
 <path d="m886.73 963.26c3.5156 3.5273 8.293 5.5078 13.273 5.5078s9.7578-1.9805 13.273-5.5078l75-75c4.7461-4.7422 6.5977-11.656 4.8594-18.133-1.7344-6.4805-6.7969-11.539-13.273-13.277-6.4805-1.7344-13.391 0.11719-18.133 4.8594l-61.727 61.766-24.227-24.262v-0.003906c-4.7422-4.7422-11.652-6.5938-18.133-4.8594-6.4766 1.7383-11.539 6.7969-13.273 13.277-1.7383 6.4766 0.11328 13.391 4.8594 18.133z"/>
</svg>
