<?xml version="1.0" encoding="UTF-8"?>
<svg width="1200pt" height="1200pt" version="1.1" viewBox="0 0 1200 1200" xmlns="http://www.w3.org/2000/svg">
 <path d="m599.95 67.125c201.52 0 303.14 244.78 160.45 387.42-142.64 142.64-387.42 41.016-387.42-160.45 0.046875-125.34 101.67-226.97 226.97-226.97zm0 504.24c-109.12 0-208.4 30.094-280.74 78.75-75.656 50.906-122.48 122.26-122.48 201.94 0 249.61 430.97 372.14 683.9 201.94 163.4-109.92 163.4-293.95 0-403.87-72.234-48.656-171.56-78.75-280.69-78.75zm248.76 126.42c-218.34-146.9-594.37-42.234-594.37 154.26 0 196.49 375.98 301.18 594.37 154.26 129.05-86.812 129.05-221.72 0-308.53zm-129-523.45c-106.36-106.36-289.08-30.703-289.08 119.77 0 150.42 182.72 226.18 289.08 119.77 66.141-66.188 66.141-173.44 0-239.53z" fill-rule="evenodd"/>
</svg>
