<?xml version="1.0" encoding="UTF-8"?>
<svg width="1200pt" height="1200pt" version="1.1" viewBox="0 0 1200 1200" xmlns="http://www.w3.org/2000/svg">
 <path d="m1012.5 802.5-121.87-28.125v25.312l121.87 37.5z"/>
 <path d="m1012.5 470.26-121.87 9.375v256.13l121.87 28.125z"/>
 <path d="m1012.5 396.94-121.87 18.75v26.25l121.87-9.375z"/>
 <path d="m1087.5 75h-37.5v1050h37.5c9.9375 0 19.5-3.9375 26.531-10.969s10.969-16.594 10.969-26.531v-975c0-9.9375-3.9375-19.5-10.969-26.531s-16.594-10.969-26.531-10.969z"/>
 <path d="m1012.5 876.37-121.87-37.5v211.13c0.046875 14.109-2.8594 28.078-8.4375 41.062l131.26 30z"/>
 <path d="m890.63 377.63 121.87-18.75v-277.87l-137.26 52.688c10.031 16.172 15.375 34.781 15.375 53.812z"/>
 <path d="m506.26 1012.5h56.25v18.75h-56.25z"/>
 <path d="m506.26 956.26h56.25v18.75h-56.25z"/>
 <path d="m543.74 867.94v-42.938h-18.75v42.938c0.09375 13.5-5.25 26.484-14.812 36-2.5781 2.4375-3.9844 5.8125-3.9375 9.375v5.4375h56.25v-5.4375c0.046874-3.5625-1.3594-6.9375-3.9375-9.375-9.5625-9.5156-14.906-22.5-14.812-36z"/>
 <path d="m375 768.74h-93.75v262.5h37.5v-117.94c-0.09375-13.5 5.25-26.484 14.812-36 2.5781-2.4375 3.9844-5.8125 3.9375-9.375v-61.688c0-10.359 8.3906-18.75 18.75-18.75h56.25c4.9688 0 9.75 1.9688 13.266 5.4844 3.5156 3.5156 5.4844 8.2969 5.4844 13.266v61.688c-0.046875 3.5625 1.3594 6.9375 3.9375 9.375 9.5625 9.5156 14.906 22.5 14.812 36v117.94h18.75v-117.94c-0.09375-13.5 5.25-26.484 14.812-36 2.5781-2.4375 3.9844-5.8125 3.9375-9.375v-61.688c0-10.359 8.3906-18.75 18.75-18.75h56.25c4.9688 0 9.75 1.9688 13.266 5.4844 3.5156 3.5156 5.4844 8.2969 5.4844 13.266v61.688c-0.046875 3.5625 1.3594 6.9375 3.9375 9.375 9.5625 9.5156 14.906 22.5 14.812 36v117.94h168.74v-262.5z"/>
 <path d="m356.26 1012.5h56.25v18.75h-56.25z"/>
 <path d="m393.74 867.94v-42.938h-18.75v42.938c0.09375 13.5-5.25 26.484-14.812 36-2.5781 2.4375-3.9844 5.8125-3.9375 9.375v5.4375h56.25v-5.4375c0.046874-3.5625-1.3594-6.9375-3.9375-9.375-9.5625-9.5156-14.906-22.5-14.812-36z"/>
 <path d="m356.26 956.26h56.25v18.75h-56.25z"/>
 <path d="m787.5 112.5h-525c-41.438 0-75 33.562-75 75v862.5c0 19.875 7.9219 38.953 21.984 53.016s33.141 21.984 53.016 21.984h525c19.875 0 38.953-7.9219 53.016-21.984s21.984-33.141 21.984-53.016v-862.5c0-19.875-7.9219-38.953-21.984-53.016s-33.141-21.984-53.016-21.984zm18.75 937.5c0 4.9688-1.9688 9.75-5.4844 13.266s-8.2969 5.4844-13.266 5.4844h-506.26c-20.719 0-37.5-16.781-37.5-37.5v-825c0-20.719 16.781-37.5 37.5-37.5h506.26c4.9688 0 9.75 1.9688 13.266 5.4844s5.4844 8.2969 5.4844 13.266z"/>
 <path d="m497.26 334.69c-2.9531 1.8281-6.2812 2.7656-9.75 2.8125-8.3438-0.046875-15.656-5.625-17.906-13.688-2.2969-8.0156 1.0781-16.594 8.1562-21l156.94-96.562h-353.44v225h165.37l199.5-128.26c4.1719-3 9.4219-4.1719 14.438-3.1875 5.0625 0.9375 9.5156 3.9375 12.281 8.25 2.8125 4.3594 3.6562 9.6094 2.4375 14.625-1.2188 4.9688-4.4531 9.2812-8.9062 11.812l-150 96.75h252.37v-225h-62.625zm-84.75 21.562c0 8.0625-5.1094 15.234-12.75 17.812l-43.5 14.438v5.25c0 10.359-8.3906 18.75-18.75 18.75-10.359 0-18.75-8.3906-18.75-18.75v-150c0-10.359 8.3906-18.75 18.75-18.75 10.359 0 18.75 8.3906 18.75 18.75v5.25l43.5 14.438c7.6406 2.5781 12.75 9.75 12.75 17.812z"/>
 <path d="m356.26 348.94 18.75-6.1875v-48l-18.75-6.1875z"/>
 <path d="m691.31 675h-145.13c8.625 33 38.438 56.016 72.562 56.016s63.938-23.016 72.562-56.016z"/>
 <path d="m431.26 642-11.625-23.25h-33l-11.625 23.25v89.25h56.25z"/>
 <path d="m281.26 731.26h56.25v-93.75c0-2.9531 0.70313-5.8125 2.0625-8.4375l18.75-37.5c3.1875-6.3281 9.6094-10.312 16.688-10.312h56.25c7.0781 0 13.5 3.9844 16.688 10.312l18.75 37.5c1.3594 2.625 2.0625 5.4844 2.0625 8.4375v93.75h66.375c-18.516-20.578-28.828-47.297-28.875-75 0-10.359 8.3906-18.75 18.75-18.75h187.5c4.9688 0 9.75 1.9688 13.266 5.4844 3.5156 3.5156 5.4844 8.2969 5.4844 13.266-0.046874 27.703-10.359 54.422-28.875 75h66.375v-262.5h-487.5z"/>
</svg>
