<?xml version="1.0" encoding="UTF-8"?>
<svg width="1200pt" height="1200pt" version="1.1" viewBox="0 0 1200 1200" xmlns="http://www.w3.org/2000/svg">
 <path d="m1139.6 116.62h-429.25c-12.707 0.03125-24.887 5.1055-33.859 14.102-8.9766 9-14.016 21.191-14.016 33.898v243.75c0.03125 12.688 5.0859 24.844 14.059 33.816s21.129 14.027 33.816 14.059h429.25c12.688-0.03125 24.844-5.0859 33.816-14.059s14.027-21.129 14.059-33.816v-243.75c0-12.707-5.0391-24.898-14.016-33.898-8.9727-8.9961-21.152-14.07-33.859-14.102zm-358.5 90.625h-46.75c-5.8008 0.44922-11.523-1.5391-15.793-5.4922-4.2695-3.9492-6.6953-9.5039-6.6953-15.32s2.4258-11.371 6.6953-15.32c4.2695-3.9531 9.9922-5.9414 15.793-5.4922h46.75c5.8008-0.44922 11.523 1.5391 15.793 5.4922 4.2695 3.9492 6.6953 9.5039 6.6953 15.32s-2.4258 11.371-6.6953 15.32c-4.2695 3.9531-9.9922 5.9414-15.793 5.4922z"/>
 <path d="m1139.6 481.25h-429.25c-12.387-0.011719-24.566-3.1953-35.375-9.25-8.0195 8.7773-12.48 20.234-12.5 32.125v589.62h525v-589.62c-0.019531-11.891-4.4805-23.348-12.5-32.125-10.809 6.0547-22.988 9.2383-35.375 9.25zm-358.5 75h-46.75c-5.8008 0.44922-11.523-1.5391-15.793-5.4922-4.2695-3.9492-6.6953-9.5039-6.6953-15.32s2.4258-11.371 6.6953-15.32c4.2695-3.9531 9.9922-5.9414 15.793-5.4922h46.75c5.8008-0.44922 11.523 1.5391 15.793 5.4922 4.2695 3.9492 6.6953 9.5039 6.6953 15.32s-2.4258 11.371-6.6953 15.32c-4.2695 3.9531-9.9922 5.9414-15.793 5.4922z"/>
 <path d="m662.5 1118.8h90.625v68.75h-90.625z"/>
 <path d="m1096.9 1118.8h90.625v68.75h-90.625z"/>
 <path d="m778.12 1118.8h293.75v68.75h-293.75z"/>
 <path d="m1139.6 88.25c-0.16406-6.8867-3.0156-13.434-7.9414-18.246-4.9297-4.8125-11.547-7.5039-18.434-7.5039h-70c-7.3711-0.042969-14.414 3.0469-19.375 8.5l-19.5 20.625h135.25z"/>
 <path d="m12.5 790.62h625v328.12h-625z"/>
 <path d="m12.5 700h625v65.625h-625z"/>
 <path d="m40.625 1143.8h596.88v43.75h-596.88z"/>
 <path d="m537.5 12.5h-525v418.75h525zm-50 368.75h-425v-318.75h425z"/>
 <path d="m232.25 87.5h-144.75v268.75h144.75zm-32.25 149c0 6.9023-5.5977 12.5-12.5 12.5s-12.5-5.5977-12.5-12.5v-29.25c0-6.9023 5.5977-12.5 12.5-12.5s12.5 5.5977 12.5 12.5z"/>
 <path d="m462.5 87.5h-144.75v268.75h144.75zm-87.5 149c0 6.9023-5.5977 12.5-12.5 12.5s-12.5-5.5977-12.5-12.5v-29.25c0-6.9023 5.5977-12.5 12.5-12.5s12.5 5.5977 12.5 12.5z"/>
 <path d="m257.25 87.5h35.5v268.75h-35.5z"/>
 <path d="m317.75 675v-146.88h-278.62v146.88zm-114.62-96.875h64.625v71.875h-64.625zm-114 0h89v71.875h-89z"/>
</svg>
