<?xml version="1.0" encoding="UTF-8"?>
<svg width="1200pt" height="1200pt" version="1.1" viewBox="0 0 1200 1200" xmlns="http://www.w3.org/2000/svg">
 <path d="m125 600h101v374c0 82.5 67.5 150 150 150h33v-344c0-83 67-150 150-150h82c83 0 150 67 150 150v344h33c82.5 0 150-67.5 150-150v-374h101c21 0 39.5-13 46.5-32 7.5-19.5 2.5-41.5-13-55.5l-408.5-365c-57-51-143-51-200 0l-408.5 365c-15.5 14-20.5 36-13 55.5 7 19 25.5 32 46.5 32z"/>
 <path d="m559 730c-27.5 0-50 22.5-50 50v344h182v-344c0-27.5-22.5-50-50-50z"/>
</svg>
