<?xml version="1.0" encoding="UTF-8"?>
<svg width="1200pt" height="1200pt" version="1.1" viewBox="0 0 1200 1200" xmlns="http://www.w3.org/2000/svg">
 <path d="m1004.2 786.19h-144.89v144.84h144.89zm-159.84-30h174.84c3.9844 0 7.7812 1.5938 10.594 4.4062s4.4062 6.6094 4.4062 10.594v174.84c0 3.9844-1.5938 7.7812-4.4062 10.594s-6.6094 4.4062-10.594 4.4062h-174.89c-8.25 0-15-6.7031-15-15v-174.84c0-8.2969 6.75-15 15-15zm-171.84 30h-144.89v144.84h144.84v-144.84zm-159.84-30h174.79c3.9844 0 7.7812 1.5938 10.594 4.4062 2.8594 2.8125 4.4062 6.6094 4.4062 10.594v174.84c0 3.9844-1.5469 7.7812-4.4062 10.594-2.8125 2.8125-6.6094 4.4062-10.594 4.4062h-174.84c-8.2969 0-15-6.7031-15-15v-174.84c0-8.2969 6.7031-15 15-15zm-171.84 30h-144.94v144.84h144.89v-144.84zm-159.84-30h174.79c3.9375 0 7.7812 1.5938 10.594 4.4062s4.4062 6.6094 4.4062 10.594v174.84c0 3.9844-1.5938 7.7812-4.4062 10.594s-6.6562 4.4062-10.594 4.4062h-174.89c-8.2969 0-15-6.7031-15-15v-174.84c0-8.2969 6.7031-15 15-15zm823.22-232.31h-144.89v144.89h144.89zm-159.84-30h174.84c3.9844 0 7.7812 1.5938 10.594 4.4062s4.4062 6.6094 4.4062 10.594v174.89c0 3.9375-1.5938 7.7812-4.4062 10.594s-6.6094 4.4062-10.594 4.4062h-174.89c-8.25 0-15-6.75-15-15v-174.89c0-8.2969 6.75-15 15-15zm-171.89 148.45c0-8.2969 6.7031-15 15-15s15 6.7031 15 15v41.438c0 3.9375-1.5469 7.7812-4.4062 10.594-2.8125 2.8125-6.6094 4.4062-10.594 4.4062h-174.84c-8.2969 0-15-6.75-15-15v-174.89c0-8.2969 6.7031-15 15-15h105.42c8.2969 0 15 6.7031 15 15s-6.7031 15-15 15h-90.469v144.89h144.89zm-331.69-118.45h-144.89v144.89h144.89zm-159.84-30h174.84c3.9375 0 7.7812 1.5938 10.594 4.4062s4.4062 6.6094 4.4062 10.594v174.89c0 3.9375-1.5938 7.7812-4.4062 10.594s-6.6562 4.4062-10.594 4.4062h-174.89c-8.2969 0-15-6.75-15-15v-174.89c0-8.2969 6.7031-15 15-15zm-90.891-71.578h1020v610.31h-1020zm714-254.9c-20.109 0.09375-36.375 16.359-36.422 36.422v69.844c0.046875 20.109 16.312 36.375 36.422 36.469 20.109-0.09375 36.375-16.359 36.422-36.469v-69.844c-0.046875-20.062-16.312-36.328-36.422-36.422zm-407.86 0c-20.109 0.09375-36.375 16.359-36.469 36.422v69.844c0.09375 20.109 16.359 36.375 36.469 36.469 20.062-0.09375 36.328-16.359 36.422-36.469v-69.844c-0.09375-20.062-16.359-36.328-36.422-36.422zm66.422 86.391h274.92v19.922c0.14062 36.656 29.859 66.328 66.516 66.375 36.656-0.09375 66.375-29.766 66.422-66.422v-19.922h239.58v138.56h-1020v-138.56h239.63v19.922c0.09375 36.656 29.766 66.328 66.422 66.422 36.656-0.046875 66.375-29.766 66.469-66.422v-19.922zm92.156 342.61 45.609 45.609c5.8594 5.8594 15.375 5.8594 21.234 0l90.047-90c2.9062-2.8125 4.5469-6.6562 4.5469-10.641 0.046876-4.0312-1.5469-7.9219-4.3594-10.734-2.8594-2.8594-6.75-4.4531-10.734-4.4062-4.0312 0.046875-7.875 1.6875-10.688 4.5938l-79.406 79.406-34.969-35.062c-5.8594-5.8594-15.375-5.8594-21.234 0-5.9062 5.8594-5.9062 15.375-0.046876 21.234z" fill-rule="evenodd"/>
</svg>
