<?xml version="1.0" encoding="UTF-8"?>
<svg width="1200pt" height="1200pt" version="1.1" viewBox="0 0 1200 1200" xmlns="http://www.w3.org/2000/svg">
 <path d="m360 72c-39.469 0-72 32.531-72 72v48h-96c-52.781 0-96 43.219-96 96v744c0 52.781 43.219 96 96 96h816c52.781 0 96-43.219 96-96v-744c0-52.781-43.219-96-96-96h-96v-48c0-39.469-32.531-72-72-72s-72 32.531-72 72v48h-336v-48c0-39.469-32.531-72-72-72zm0 48c13.734 0 24 10.266 24 24v144c0 13.734-10.266 24-24 24s-24-10.266-24-24v-144c0-13.734 10.266-24 24-24zm480 0c13.734 0 24 10.266 24 24v144c0 13.734-10.266 24-24 24s-24-10.266-24-24v-144c0-13.734 10.266-24 24-24zm-648 120h96v48c0 39.469 32.531 72 72 72s72-32.531 72-72v-48h336v48c0 39.469 32.531 72 72 72s72-32.531 72-72v-48h96c27 0 48 21 48 48v168h-912v-168c0-27 21-48 48-48zm-48 264h912v528c0 27-21 48-48 48h-816c-27 0-48-21-48-48zm132 60c-13.266 0-24 10.734-24 24v144c0 13.219 10.734 24 24 24h144c13.266 0 24-10.781 24-24v-144c0-13.266-10.734-24-24-24zm252 0c-13.266 0-24 10.734-24 24v144c0 13.219 10.734 24 24 24h144c13.266 0 24-10.781 24-24v-144c0-13.266-10.734-24-24-24zm252 0c-13.266 0-24 10.734-24 24v144c0 13.219 10.734 24 24 24h144c13.266 0 24-10.781 24-24v-144c0-13.266-10.734-24-24-24zm-480 48h96v96h-96zm252 0h96v96h-96zm252 0h96v96h-96zm-528 216c-13.266 0-24 10.734-24 24v144c0 13.219 10.734 24 24 24h144c13.266 0 24-10.781 24-24v-144c0-13.266-10.734-24-24-24zm252 0c-13.266 0-24 10.734-24 24v144c0 13.219 10.734 24 24 24h144c13.266 0 24-10.781 24-24v-144c0-13.266-10.734-24-24-24zm252 0c-13.266 0-24 10.734-24 24v144c0 13.219 10.734 24 24 24h144c13.266 0 24-10.781 24-24v-144c0-13.266-10.734-24-24-24zm-480 48h96v96h-96zm252 0h96v96h-96zm252 0h96v96h-96z"/>
</svg>
