<?xml version="1.0" encoding="UTF-8"?>
<svg width="1200pt" height="1200pt" version="1.1" viewBox="0 0 1200 1200" xmlns="http://www.w3.org/2000/svg">
 <path d="m250.8 925.2h126c18 0 32.398-14.398 32.398-32.398v-64.801c0-18-14.398-32.398-32.398-32.398h-126c-18 0-32.398 14.398-32.398 32.398v64.801c-1.2031 18 14.398 32.398 32.398 32.398z"/>
 <path d="m250.8 686.4h126c18 0 32.398-14.398 32.398-32.398v-66c0-18-14.398-32.398-32.398-32.398h-126c-18 0-32.398 14.398-32.398 32.398v64.801c-1.2031 18 14.398 33.598 32.398 33.598z"/>
 <path d="m824.4 925.2h126c18 0 32.398-14.398 32.398-32.398l0.003906-64.801c0-18-14.398-32.398-32.398-32.398h-126c-18 0-32.398 14.398-32.398 32.398v64.801c-1.1992 18 13.199 32.398 32.398 32.398z"/>
 <path d="m824.4 686.4h126c18 0 32.398-14.398 32.398-32.398l0.003906-66c0-18-14.398-32.398-32.398-32.398h-126c-18 0-32.398 14.398-32.398 32.398v64.801c-1.1992 18 13.199 33.598 32.398 33.598z"/>
 <path d="m537.6 925.2h126c18 0 32.398-14.398 32.398-32.398v-64.801c0-18-14.398-32.398-32.398-32.398h-126c-18 0-32.398 14.398-32.398 32.398v64.801c-1.2031 18 14.398 32.398 32.398 32.398z"/>
 <path d="m537.6 686.4h126c18 0 32.398-14.398 32.398-32.398v-66c0-18-14.398-32.398-32.398-32.398h-126c-18 0-32.398 14.398-32.398 32.398v64.801c-1.2031 18 14.398 33.598 32.398 33.598z"/>
 <path d="m1050 172.8h-120v48c0 42-34.801 76.801-76.801 76.801s-76.801-33.602-76.801-76.801v-48h-354v48c0 42-33.602 76.801-76.801 76.801-42 0-76.801-33.602-76.801-76.801v-48h-120c-66 0-120 54-120 120v698.4c0 66 54 120 120 120h900c66 0 120-54 120-120l0.003906-698.4c1.1992-66-52.801-120-118.8-120zm54 818.4c0 30-24 54-54 54h-900c-30 0-54-24-54-54v-555.6h1008z"/>
 <path d="m346.8 254.4c18 0 32.398-14.398 32.398-32.398v-99.602c0-18-14.398-32.398-32.398-32.398s-32.398 14.398-32.398 32.398v99.602c-1.2031 18 14.398 32.398 32.398 32.398z"/>
 <path d="m853.2 254.4c18 0 32.398-14.398 32.398-32.398v-99.602c0-18-14.398-32.398-32.398-32.398s-32.398 14.398-32.398 32.398v99.602c0 18 14.398 32.398 32.398 32.398z"/>
</svg>
