<?xml version="1.0" encoding="UTF-8"?>
<svg width="1200pt" height="1200pt" version="1.1" viewBox="0 0 1200 1200" xmlns="http://www.w3.org/2000/svg">
 <path d="m1012.5 150h-100.88v-37.5c0-13.398-7.1484-25.777-18.75-32.477-11.602-6.6992-25.898-6.6992-37.5 0-11.602 6.6992-18.75 19.078-18.75 32.477v37.5h-473.62v-37.5c0-13.398-7.1484-25.777-18.75-32.477-11.602-6.6992-25.898-6.6992-37.5 0-11.602 6.6992-18.75 19.078-18.75 32.477v37.5h-100.5c-29.836 0-58.453 11.852-79.551 32.949-21.098 21.098-32.949 49.715-32.949 79.551v75h1050v-75c-0.089844-29.809-11.969-58.371-33.051-79.449-21.078-21.082-49.641-32.961-79.449-33.051z"/>
 <path d="m150 412.5h-75v600c0 29.836 11.852 58.453 32.949 79.551 21.098 21.098 49.715 32.949 79.551 32.949h825c29.809-0.089844 58.371-11.969 79.449-33.051 21.082-21.078 32.961-49.641 33.051-79.449v-600zm712.5 93.75c0-4.9727 1.9766-9.7422 5.4922-13.258 3.5156-3.5156 8.2852-5.4922 13.258-5.4922h75c4.9727 0 9.7422 1.9766 13.258 5.4922 3.5156 3.5156 5.4922 8.2852 5.4922 13.258v75c0 4.9727-1.9766 9.7422-5.4922 13.258-3.5156 3.5156-8.2852 5.4922-13.258 5.4922h-75c-4.9727 0-9.7422-1.9766-13.258-5.4922-3.5156-3.5156-5.4922-8.2852-5.4922-13.258zm0 187.5c0-4.9727 1.9766-9.7422 5.4922-13.258 3.5156-3.5156 8.2852-5.4922 13.258-5.4922h75c4.9727 0 9.7422 1.9766 13.258 5.4922 3.5156 3.5156 5.4922 8.2852 5.4922 13.258v75c0 4.9727-1.9766 9.7422-5.4922 13.258-3.5156 3.5156-8.2852 5.4922-13.258 5.4922h-75c-4.9727 0-9.7422-1.9766-13.258-5.4922-3.5156-3.5156-5.4922-8.2852-5.4922-13.258zm-13.5 205.5c3.5195-3.5508 8.3125-5.5469 13.312-5.5469s9.793 1.9961 13.312 5.5469l24.375 24.375 61.5-61.875c4.7578-4.7578 11.688-6.6133 18.184-4.8711 6.5 1.7383 11.574 6.8125 13.312 13.312 1.7422 6.4961-0.11328 13.426-4.8711 18.184l-75 75c-3.6133 3.375-8.3711 5.25-13.312 5.25s-9.6992-1.875-13.312-5.25l-37.5-37.5c-3.4336-3.582-5.3516-8.3516-5.3516-13.312s1.918-9.7305 5.3516-13.312zm-199.12-393c0-4.9727 1.9766-9.7422 5.4922-13.258 3.5156-3.5156 8.2852-5.4922 13.258-5.4922h75c4.9727 0 9.7422 1.9766 13.258 5.4922 3.5156 3.5156 5.4922 8.2852 5.4922 13.258v75c0 4.9727-1.9766 9.7422-5.4922 13.258-3.5156 3.5156-8.2852 5.4922-13.258 5.4922h-75c-4.9727 0-9.7422-1.9766-13.258-5.4922-3.5156-3.5156-5.4922-8.2852-5.4922-13.258zm0 187.5c0-4.9727 1.9766-9.7422 5.4922-13.258 3.5156-3.5156 8.2852-5.4922 13.258-5.4922h75c4.9727 0 9.7422 1.9766 13.258 5.4922 3.5156 3.5156 5.4922 8.2852 5.4922 13.258v75c0 4.9727-1.9766 9.7422-5.4922 13.258-3.5156 3.5156-8.2852 5.4922-13.258 5.4922h-75c-4.9727 0-9.7422-1.9766-13.258-5.4922-3.5156-3.5156-5.4922-8.2852-5.4922-13.258zm0 187.5c0-4.9727 1.9766-9.7422 5.4922-13.258 3.5156-3.5156 8.2852-5.4922 13.258-5.4922h75c4.9727 0 9.7422 1.9766 13.258 5.4922 3.5156 3.5156 5.4922 8.2852 5.4922 13.258v75c0 4.9727-1.9766 9.7422-5.4922 13.258-3.5156 3.5156-8.2852 5.4922-13.258 5.4922h-75c-4.9727 0-9.7422-1.9766-13.258-5.4922-3.5156-3.5156-5.4922-8.2852-5.4922-13.258zm-212.62-375c0-4.9727 1.9766-9.7422 5.4922-13.258 3.5156-3.5156 8.2852-5.4922 13.258-5.4922h75c4.9727 0 9.7422 1.9766 13.258 5.4922 3.5156 3.5156 5.4922 8.2852 5.4922 13.258v75c0 4.9727-1.9766 9.7422-5.4922 13.258-3.5156 3.5156-8.2852 5.4922-13.258 5.4922h-75c-4.9727 0-9.7422-1.9766-13.258-5.4922-3.5156-3.5156-5.4922-8.2852-5.4922-13.258zm0 187.5c0-4.9727 1.9766-9.7422 5.4922-13.258 3.5156-3.5156 8.2852-5.4922 13.258-5.4922h75c4.9727 0 9.7422 1.9766 13.258 5.4922 3.5156 3.5156 5.4922 8.2852 5.4922 13.258v75c0 4.9727-1.9766 9.7422-5.4922 13.258-3.5156 3.5156-8.2852 5.4922-13.258 5.4922h-75c-4.9727 0-9.7422-1.9766-13.258-5.4922-3.5156-3.5156-5.4922-8.2852-5.4922-13.258zm0 187.5c0-4.9727 1.9766-9.7422 5.4922-13.258 3.5156-3.5156 8.2852-5.4922 13.258-5.4922h75c4.9727 0 9.7422 1.9766 13.258 5.4922 3.5156 3.5156 5.4922 8.2852 5.4922 13.258v75c0 4.9727-1.9766 9.7422-5.4922 13.258-3.5156 3.5156-8.2852 5.4922-13.258 5.4922h-75c-4.9727 0-9.7422-1.9766-13.258-5.4922-3.5156-3.5156-5.4922-8.2852-5.4922-13.258zm-212.25-375c0-4.9727 1.9766-9.7422 5.4922-13.258 3.5156-3.5156 8.2852-5.4922 13.258-5.4922h75c4.9727 0 9.7422 1.9766 13.258 5.4922 3.5156 3.5156 5.4922 8.2852 5.4922 13.258v75c0 4.9727-1.9766 9.7422-5.4922 13.258-3.5156 3.5156-8.2852 5.4922-13.258 5.4922h-75c-4.9727 0-9.7422-1.9766-13.258-5.4922-3.5156-3.5156-5.4922-8.2852-5.4922-13.258zm0 187.5c0-4.9727 1.9766-9.7422 5.4922-13.258 3.5156-3.5156 8.2852-5.4922 13.258-5.4922h75c4.9727 0 9.7422 1.9766 13.258 5.4922 3.5156 3.5156 5.4922 8.2852 5.4922 13.258v75c0 4.9727-1.9766 9.7422-5.4922 13.258-3.5156 3.5156-8.2852 5.4922-13.258 5.4922h-75c-4.9727 0-9.7422-1.9766-13.258-5.4922-3.5156-3.5156-5.4922-8.2852-5.4922-13.258zm0 187.5c0-4.9727 1.9766-9.7422 5.4922-13.258 3.5156-3.5156 8.2852-5.4922 13.258-5.4922h75c4.9727 0 9.7422 1.9766 13.258 5.4922 3.5156 3.5156 5.4922 8.2852 5.4922 13.258v75c0 4.9727-1.9766 9.7422-5.4922 13.258-3.5156 3.5156-8.2852 5.4922-13.258 5.4922h-75c-4.9727 0-9.7422-1.9766-13.258-5.4922-3.5156-3.5156-5.4922-8.2852-5.4922-13.258z"/>
</svg>
