<?xml version="1.0" encoding="UTF-8"?>
<svg width="1200pt" height="1200pt" version="1.1" viewBox="0 0 1200 1200" xmlns="http://www.w3.org/2000/svg">
 <path d="m1057.1 1156.5h-914.28c-9.9453 0-19.484-3.9531-26.516-10.984-7.0352-7.0312-10.984-16.57-10.984-26.516v-718.73c0-12.25 5.9844-23.723 16.02-30.742l457.14-319.34c6.3008-4.3945 13.805-6.75 21.488-6.75 7.6875 0.003907 15.184 2.3672 21.484 6.7656l117.23 81.977v-51.25c-0.003906-9.9453 3.9453-19.484 10.98-26.52 7.0312-7.0312 16.574-10.984 26.52-10.98h207.61c9.9453-0.003906 19.484 3.9492 26.52 10.98 7.0312 7.0352 10.98 16.574 10.98 26.52v248.57l57.309 40.027c10.035 7.0195 16.008 18.496 16.004 30.742v718.73c0.003906 9.9453-3.9453 19.484-10.98 26.52-7.0312 7.0312-16.574 10.984-26.52 10.98zm-251.11-75h213.61v-661.69l-57.312-40.027c-10.035-7.0195-16.008-18.5-16.004-30.746v-230.6h-132.6v85.73c-0.12109 9.1406-3.5547 17.926-9.6602 24.727s-14.469 11.16-23.543 12.262-18.238-1.1211-25.797-6.2656l-154.74-108.2-419.62 293.13v661.67h213.63v-376.61c0-9.9453 3.9531-19.484 10.984-26.516s16.57-10.984 26.516-10.984h337.04c9.9453-0.003907 19.484 3.9492 26.52 10.98 7.0312 7.0352 10.98 16.574 10.98 26.52zm-337.04 0h262.04v-339.11h-262.04z"/>
</svg>
