<?xml version="1.0" encoding="UTF-8"?>
<svg width="1200pt" height="1200pt" version="1.1" viewBox="0 0 1200 1200" xmlns="http://www.w3.org/2000/svg">
 <path d="m1064.2 396.38c-48.516-36.012-305.69-225.94-395.62-292.5-19.895-14.617-43.938-22.5-68.625-22.5s-48.73 7.8828-68.625 22.5c-19.875 15-92.25 68.625-170.25 126-97.875 72.375-204.38 151.12-225 166.12-8.0391 6.0703-13.312 15.105-14.648 25.09-1.332 9.9844 1.3867 20.09 7.5508 28.055 6.1641 7.9688 15.258 13.137 25.258 14.355s20.07-1.6172 27.965-7.875v577.13c0.003906 22.875 9.0898 44.809 25.266 60.984s38.109 25.262 60.984 25.266h189.75v-259.88c0-50.645 27.02-97.438 70.875-122.76 43.859-25.32 97.895-25.32 141.75 0 43.859 25.324 70.879 72.117 70.879 122.76v259.88h189.75c22.871-0.003906 44.809-9.0898 60.984-25.266 16.172-16.176 25.262-38.109 25.266-60.984v-577.5c7.7891 6.3203 17.793 9.2578 27.766 8.1523 9.9727-1.1055 19.09-6.1602 25.309-14.035s9.0234-17.91 7.7891-27.871c-1.2383-9.957-6.4102-19.004-14.367-25.121zm-382.5 53.25h-163.5c-13.266-0.19531-25.438-7.3867-32.016-18.91-6.5781-11.52-6.5781-25.66 0-37.18 6.5781-11.523 18.75-18.715 32.016-18.91h163.5c13.266 0.19531 25.438 7.3867 32.016 18.91 6.5781 11.52 6.5781 25.66 0 37.18-6.5781 11.523-18.75 18.715-32.016 18.91z"/>
</svg>
