<?xml version="1.0" encoding="UTF-8"?>
<svg width="1200pt" height="1200pt" version="1.1" viewBox="0 0 1200 1200" xmlns="http://www.w3.org/2000/svg">
 <path d="m1146.9 743.48-113.5-65.52c9.1875-51.594 9.1875-104.41 0-156l113.5-65.52c5.7344-3.3086 10.172-8.4805 12.566-14.656 2.3945-6.1758 2.6094-12.984 0.60547-19.297-25.891-81.191-69.047-155.82-126.5-218.75-4.4688-4.8906-10.473-8.1094-17.02-9.1211-6.5508-1.0117-13.246 0.24609-18.98 3.5625l-113.41 65.496c-40.043-33.793-85.754-60.223-135.02-78.062v-130.98c0-6.6328-2.2656-13.07-6.4297-18.234-4.1602-5.168-9.9648-8.7539-16.445-10.164-83.234-18.137-169.4-18.137-252.63 0-6.4805 1.418-12.277 5.0078-16.434 10.176-4.1602 5.168-6.4219 11.602-6.418 18.234v130.96c-49.273 17.836-94.992 44.266-135.04 78.062l-113.45-65.496c-5.7344-3.3164-12.43-4.5742-18.977-3.5625-6.5508 1.0117-12.555 4.2305-17.023 9.1211-57.418 62.949-100.54 137.57-126.41 218.75-2.0039 6.3164-1.7891 13.125 0.60937 19.301 2.3984 6.1758 6.8359 11.344 12.578 14.652l113.48 65.52c-9.2109 51.594-9.2109 104.41 0 156l-113.55 65.52c-5.7383 3.3125-10.176 8.4844-12.57 14.664-2.3984 6.1758-2.6094 12.988-0.60156 19.305 25.895 81.188 69.047 155.82 126.5 218.75 4.4688 4.8906 10.473 8.1094 17.02 9.1211 6.5508 1.0117 13.246-0.24609 18.98-3.5625l113.41-65.496c40.055 33.793 85.781 60.219 135.06 78.051v130.99c-0.003906 6.6289 2.2578 13.059 6.4141 18.223 4.1523 5.168 9.9492 8.7539 16.422 10.172 83.227 18.23 169.41 18.23 252.63 0 6.4766-1.4141 12.273-5 16.43-10.168 4.1602-5.1641 6.4219-11.598 6.4219-18.227v-130.99c49.273-17.836 94.996-44.266 135.04-78.062l113.45 65.508c5.7344 3.3164 12.43 4.5742 18.977 3.5625 6.5508-1.0117 12.555-4.2305 17.023-9.1211 57.418-62.949 100.54-137.57 126.41-218.75 2.0117-6.3086 1.8086-13.117-0.57812-19.297-2.3867-6.1758-6.8125-11.352-12.543-14.672zm-546.95 107.37v0.003906c-49.637 0-98.156-14.719-139.42-42.297-41.27-27.578-73.434-66.773-92.426-112.63-18.988-45.859-23.953-96.32-14.262-145 9.6875-48.68 33.598-93.391 68.699-128.48 35.105-35.094 79.824-58.984 128.51-68.656 48.684-9.6758 99.141-4.6914 144.99 14.312 45.852 19.008 85.039 51.188 112.6 92.465s42.266 89.801 42.246 139.44c-0.082031 66.523-26.547 130.3-73.59 177.34-47.043 47.035-110.82 73.492-177.35 73.566z"/>
</svg>
