<?xml version="1.0" encoding="UTF-8"?>
<svg width="1200pt" height="1200pt" version="1.1" viewBox="0 0 1200 1200" xmlns="http://www.w3.org/2000/svg">
 <path d="m467.73 738.52h264.54l0.003906 380.5h-264.54zm568.87-363.45-48.512-34.109v-221.34c-0.0625-10.297-4.207-20.148-11.527-27.395-7.3164-7.2461-17.207-11.297-27.508-11.258h-132.27c-10.238 0.042969-20.047 4.1289-27.285 11.367-7.2422 7.2422-11.328 17.047-11.371 27.285v75.043l-144.02-100.81c-9.9844-7.0273-21.898-10.801-34.109-10.801s-24.125 3.7734-34.109 10.801l-402.49 281.21c-15.91 11.027-25.402 29.156-25.391 48.516v695.45h253.93l-0.003906-418.41c-0.03125-10.062 3.9492-19.723 11.062-26.836 7.1172-7.1133 16.777-11.098 26.84-11.062h340.34-0.003906c10.062-0.035156 19.723 3.9492 26.836 11.062 7.1172 7.1133 11.098 16.773 11.062 26.836v418.41h253.93v-695.45c0.007812-19.355-9.4805-37.488-25.395-48.512z"/>
</svg>
