<?xml version="1.0" encoding="UTF-8"?>
<svg width="1200pt" height="1200pt" version="1.1" viewBox="0 0 1200 1200" xmlns="http://www.w3.org/2000/svg">
 <path d="m326.26 969h-36c-32.203 0-63.094-12.797-85.922-35.578-22.781-22.781-35.578-53.719-35.578-85.922v-651c0-32.203 12.797-63.141 35.578-85.875 22.828-22.828 53.719-35.625 85.922-35.625h462c32.203 0 63.094 12.797 85.922 35.625 22.781 22.734 35.578 53.672 35.578 85.875v36h36c32.203 0 63.094 12.797 85.922 35.578 22.781 22.828 35.578 53.672 35.578 85.922v651c0 32.25-12.797 63.094-35.578 85.922-22.828 22.781-53.719 35.578-85.922 35.578h-462c-32.203 0-63.094-12.797-85.922-35.578-22.781-22.828-35.578-53.672-35.578-85.922zm472.5-121.5v-651c0-12.328-4.9219-24.188-13.641-32.859-8.7188-8.7656-20.531-13.641-32.859-13.641h-462c-12.328 0-24.141 4.875-32.859 13.641-8.7188 8.6719-13.641 20.531-13.641 32.859v651c0 12.328 4.9219 24.141 13.641 32.906 8.7188 8.6719 20.531 13.594 32.859 13.594h462c12.328 0 24.141-4.9219 32.859-13.594 8.7188-8.7656 13.641-20.578 13.641-32.906zm-397.5 121.5v36c0 12.328 4.9219 24.141 13.641 32.859 8.7188 8.7656 20.531 13.641 32.859 13.641h462c12.328 0 24.141-4.875 32.859-13.641 8.7188-8.7188 13.641-20.531 13.641-32.859v-651c0-12.328-4.9219-24.141-13.641-32.859-8.7188-8.7656-20.531-13.641-32.859-13.641h-36v540c0 32.203-12.797 63.141-35.578 85.922-22.828 22.781-53.719 35.578-85.922 35.578zm-69-315c-20.719 0-37.5-16.828-37.5-37.5 0-20.719 16.781-37.5 37.5-37.5h378c20.719 0 37.5 16.781 37.5 37.5 0 20.672-16.781 37.5-37.5 37.5zm0-336c-20.719 0-37.5-16.828-37.5-37.5 0-20.719 16.781-37.5 37.5-37.5h378c20.719 0 37.5 16.781 37.5 37.5 0 20.672-16.781 37.5-37.5 37.5zm0 504c-20.719 0-37.5-16.828-37.5-37.5 0-20.719 16.781-37.5 37.5-37.5h378c20.719 0 37.5 16.781 37.5 37.5 0 20.672-16.781 37.5-37.5 37.5zm0-336c-20.719 0-37.5-16.828-37.5-37.5 0-20.719 16.781-37.5 37.5-37.5h378c20.719 0 37.5 16.781 37.5 37.5 0 20.672-16.781 37.5-37.5 37.5z" fill-rule="evenodd"/>
</svg>
