<?xml version="1.0" encoding="UTF-8"?>
<svg width="1200pt" height="1200pt" version="1.1" viewBox="0 0 1200 1200" xmlns="http://www.w3.org/2000/svg">
 <path d="m225 975c0 82.875 67.125 150 150 150h450c82.875 0 150-67.125 150-150zm600-900h-450c-82.875 0-150 67.125-150 150v675h750v-675c0-82.875-67.125-150-150-150zm-75 675c0 20.625-16.875 37.5-37.5 37.5h-225c-20.625 0-37.5-16.875-37.5-37.5v-75h300zm0-155.26v5.25h-300v-5.25c-64.5-16.875-112.5-75-112.5-144.74s49.875-130.5 116.62-145.87c15.375-66.75 74.625-116.62 145.87-116.62s130.5 49.875 145.87 116.62c66.75 15.375 116.62 74.625 116.62 145.87s-48 127.87-112.5 144.74z"/>
</svg>
