<?xml version="1.0" encoding="UTF-8"?>
<svg width="1200pt" height="1200pt" version="1.1" viewBox="0 0 1200 1200" xmlns="http://www.w3.org/2000/svg">
 <path d="m1142.7 447.32c4.4062-11.672-5.1094-25.312-17.672-24.938h-24.281l9.0938-57.281c5.7188-35.344-9.8438-71.297-39.703-91.734-7.8281-5.2969-12.141-14.906-12.281-25.594 15.938-0.60938 30.094-13.5 32.25-29.344l5.4375-34.359c3.0469-19.172-10.078-37.266-29.297-40.312l-91.781-14.531c-19.406-2.8594-37.266 10.125-40.266 29.297l-5.4375 34.359c-2.8125 15.75 6.7031 32.438 21.609 38.109-3.375 9.9375-10.5 17.719-19.594 20.391-26.766 7.7344-48.281 27.281-59.297 52.359-21.609-14.766-49.266-18.891-74.156-11.109 2.1562-13.875 7.6406-31.734 21.094-49.922 6.1406-8.3438 4.3594-20.109-3.9375-26.203-34.781-21.797-55.219 66.656-55.266 78.469-9.2344-2.1094-18.656-2.8594-28.078-2.0625 2.8594-119.02-34.219-205.6-93.609-214.08-48.562-6.75-97.688 40.688-130.74 123.71-11.438-12.094-27.844-18.75-44.062-20.016-22.078-76.406-133.78-64.781-139.87 14.062-32.906 9.3281-55.406 41.156-51.844 76.219 0.70312 6.6094 2.2969 13.031 4.6875 19.172-9.1406 6.2812-18.984 15.844-23.859 29.484-14.625 33.141 21.047 74.109 49.266 100.92h-41.766l-29.578-95.672c-11.812-38.25-46.688-63.984-86.766-63.984h-68.016c-24.188 0.42188-25.031 36.984 0 37.5h68.016c23.531 0 43.969 15.094 50.953 37.547l178.13 576.1c12.656 40.922 49.922 68.391 92.766 68.391h4.5938c-41.906 55.734 1.5938 141.14 72.094 139.5 70.453 1.4062 114.05-83.438 72.047-139.5h168.14c-42 55.734 1.6875 141.14 72.094 139.5 70.406 1.4062 114.05-83.438 72.047-139.5h53.344c10.359 0 18.75-8.3906 18.75-18.75s-8.3906-18.75-18.75-18.75h-514.36c-26.297 0-49.172-16.875-56.953-41.953l-16.359-52.922h596.63c7.9688 0 15.047-5.0156 17.672-12.562 30.328-86.484 107.53-306.47 136.87-390.05zm-550.22 585.98c-1.7344 67.266-100.27 67.219-102 0 1.7812-67.266 100.22-67.266 102 0zm312.28 0c-1.7344 67.266-100.27 67.219-102 0 1.7812-67.266 100.22-67.266 102 0zm115.22-349.55h-138.66l5.6719-95.203h166.36l-33.422 95.203zm-709.26-95.203h151.78l13.453 95.203h-135.79zm189.66 0h166.18v95.203h-152.72zm166.18-128.68v91.172h-171.42l-12.891-91.172zm190.69 0-5.4375 91.172h-147.74v-91.172zm-190.69 261.37v91.172h-134.53l-12.891-91.172zm37.5 0h137.58l-5.4375 91.172h-132.14zm0-37.5v-95.203h145.5l-5.6719 95.203zm185.29-132.71 5.4375-91.172h203.81l-31.969 91.172zm81.562-384.42 87.328 13.828-4.125 30s-84.703-13.453-87.891-13.922l4.7344-29.906zm-29.531 120.79c22.594-6.75 40.172-25.828 46.359-49.5 0 0 32.484 5.1562 32.484 5.1562-1.4531 24.656 9.4219 48.141 28.781 61.359 18.188 12.375 27.281 33.375 23.812 54.797l-10.031 63.188h-143.53c4.3125-31.078-3-62.438-18.094-86.719 2.4375-22.547 18.234-42 40.172-48.234zm-172.55 51.188c6.1406 3.1875 13.453 3.4688 19.406-0.375 52.359-38.156 102 21.047 94.406 75.984-0.23438 2.9062-1.0781 5.4375-1.5469 8.2031h-168.28c7.5938-28.875 13.688-60.656 15.844-91.312 13.453-3 27.281 0.09375 40.172 7.5469zm-136.6-222.56c26.812 3.8438 52.312 49.641 59.484 122.68l-41.062-5.7656c-10.359-1.5-19.734 5.7188-21.188 15.984s5.7188 19.734 15.984 21.188l48.234 6.75c0.23438 24.281-1.3594 50.531-4.9688 75.281l-39.656-5.5781c-24.469-3.1875-29.531 33.375-5.2031 37.125l38.438 5.3906c-2.3906 11.484-5.2031 22.5-8.25 33.328h-149.86c28.078-57.938 71.578-126.14 3.7969-155.72 0.98438-22.875 12.234-46.453 19.781-64.875 0 0 46.078 6.4688 46.078 6.4688 10.078 1.5 19.781-5.6719 21.188-15.938 1.4531-10.266-5.6719-19.734-15.938-21.188l-32.859-4.6406c22.688-36.328 47.156-53.203 66-50.484zm-310.22 273.89c-23.391-23.906-57.797-56.484-14.531-72.469 5.8594-1.9219 10.359-6.6094 12.141-12.469 4.5469-13.781-11.391-22.688-11.25-36-1.9219-18.656 11.859-35.438 31.875-37.312 14.156 1.9688 25.406-12.891 20.062-26.016-1.8281-18.797 11.672-35.531 30.422-37.453 18.938-1.9219 37.172 13.734 36.938 34.312-0.28125 11.672 11.578 21.094 22.875 18.281 19.078-4.7812 39.328 10.547 40.875 29.812 2.7656 13.641-11.109 24.234-4.1719 37.078 7.6875 15.422 26.953 6.6562 37.922 22.734 3.0938 5.1562 2.7188 12.75-1.0781 22.641-6.4219 16.875-26.953 61.172-42.234 89.391h-52.219l-3.6094-35.859 34.969-26.953c19.312-15.047-3.375-44.625-22.875-29.719l-16.5 12.703-2.8125-28.078 34.922-26.953c19.312-15.047-3.375-44.578-22.875-29.719l-16.453 12.703-2.7188-27.234c-2.9062-24.281-39.375-20.906-37.312 3.75l2.7656 27.328-18.75-9.1875c-9.2812-4.6406-20.531-0.75-25.078 8.5781-4.5469 9.2812-0.75 20.531 8.5781 25.078l39.703 19.453 2.8125 28.031-18.75-9.1875c-22.266-10.594-38.484 22.5-16.5 33.656l39.656 19.453 3.2344 32.109h-40.266c-9.9375-11.766-20.297-22.781-29.672-32.484zm122.39 69.984 12.891 91.172h-158.06l-28.172-91.172h173.39zm-92.578 261.37h129.47l12.891 91.172h-114.14l-28.172-91.172zm623.11 91.172h-101.16l5.4375-91.172h127.74l-31.969 91.172z"/>
</svg>
