<?xml version="1.0" encoding="UTF-8"?>
<svg width="1200pt" height="1200pt" version="1.1" viewBox="0 0 1200 1200" xmlns="http://www.w3.org/2000/svg">
 <path d="m600 975c30.117 0 59.004-11.957 80.312-33.242 21.309-21.285 33.297-50.16 33.328-80.277 0-4.7734-1.8984-9.3516-5.2734-12.727-3.375-3.3789-7.9531-5.2734-12.727-5.2734h-191.64c-4.7734 0-9.3516 1.8945-12.727 5.2734-3.3789 3.375-5.2734 7.9531-5.2734 12.727 0.03125 30.18 12.066 59.109 33.453 80.406 21.387 21.293 50.367 33.207 80.547 33.113zm75.48-96c-5.6094 22.648-21.09 41.578-42.172 51.574-21.082 9.9922-45.535 9.9922-66.617 0-21.082-9.9961-36.562-28.926-42.172-51.574z"/>
 <path d="m822 514.32c-0.019531-46.293-14.484-91.43-41.371-129.11-26.887-37.688-64.859-66.047-108.63-81.129-3.3594-105.48-139.92-105.48-143.28 0-43.902 14.961-82.031 43.27-109.05 80.965-27.023 37.695-41.59 82.895-41.664 129.28 0 170.88-84.719 278.28-85.559 279.36-2.1602 2.6328-3.5195 5.8281-3.9219 9.207-0.40625 3.3789 0.16406 6.8047 1.6406 9.875 1.4688 3.0508 3.7656 5.625 6.6328 7.4297 2.8633 1.8047 6.1797 2.7656 9.5664 2.7695h587.28c4.5352-0.027344 8.8945-1.7656 12.207-4.8711 3.3086-3.1055 5.3242-7.3438 5.6406-11.867 0.32031-4.5273-1.0859-9.0078-3.9297-12.543-0.83984-1.0781-85.559-108.48-85.559-279.36zm-222-253.2c24 0 31.559 18.719 34.32 33.84-22.738-3.6016-45.902-3.6016-68.641 0 2.7617-15.121 10.922-33.84 34.32-33.84zm-259.56 525.84c48.789-82.527 74.215-176.77 73.559-272.64 10.199-246.84 361.8-246.72 372 0-0.65625 95.867 24.77 190.11 73.559 272.64z"/>
 <path d="m982.44 471.72h-101.88c-6.4297 0-12.371 3.4336-15.586 9-3.2148 5.5703-3.2148 12.434 0 18 3.2148 5.5703 9.1562 9 15.586 9h101.88c6.4297 0 12.371-3.4297 15.586-9 3.2148-5.5664 3.2148-12.43 0-18-3.2148-5.5664-9.1562-9-15.586-9z"/>
 <path d="m838.56 348c3.1094 0.015625 6.1641-0.76953 8.8828-2.2812l88.559-50.16c5.6367-3.1484 9.1641-9.0703 9.2578-15.527 0.089844-6.457-3.2734-12.473-8.8203-15.781-5.5508-3.3047-12.441-3.4023-18.078-0.25l-88.68 50.398c-4.6016 2.6523-7.8008 7.1992-8.7383 12.43-0.9375 5.2266 0.48438 10.602 3.8828 14.684 3.3945 4.0859 8.4258 6.457 13.734 6.4883z"/>
 <path d="m217.56 507.72h101.88c6.4297 0 12.371-3.4297 15.586-9 3.2148-5.5664 3.2148-12.43 0-18-3.2148-5.5664-9.1562-9-15.586-9h-101.88c-6.4297 0-12.371 3.4336-15.586 9-3.2148 5.5703-3.2148 12.434 0 18 3.2148 5.5703 9.1562 9 15.586 9z"/>
 <path d="m264 295.56 88.68 50.16c5.5938 3.1719 12.457 3.1211 18.004-0.13672 5.543-3.2617 8.9297-9.2305 8.8789-15.66-0.050781-6.4336-3.5273-12.348-9.1211-15.523l-88.801-50.398c-5.6367-3.1523-12.527-3.0547-18.078 0.25-5.5469 3.3086-8.9102 9.3242-8.8203 15.781 0.09375 6.457 3.6211 12.379 9.2578 15.527z"/>
</svg>
