<?xml version="1.0" encoding="UTF-8"?>
<svg width="1200pt" height="1200pt" version="1.1" viewBox="0 0 1200 1200" xmlns="http://www.w3.org/2000/svg">
 <path d="m216 120c-53.016 0-96 42.984-96 96v360c0 53.016 42.984 96 96 96h12v120c0 9.7031 5.8594 18.469 14.812 22.172s19.312 1.6406 26.156-5.2031l136.97-136.97h2.0625v168c0 53.016 42.984 96 96 96h290.06l136.97 136.97c6.8438 6.8438 17.203 8.9062 26.156 5.2031s14.812-12.469 14.812-22.172v-120h12c53.016 0 96-42.984 96-96v-360c0-53.016-42.984-96-96-96h-192v-168c0-53.016-42.984-96-96-96zm-48 96c0-26.531 21.469-48 48-48h480c26.531 0 48 21.469 48 48v360c0 26.531-21.469 48-48 48h-300c-6.375 0-12.469 2.5312-16.969 7.0312l-103.03 103.03v-86.062c0-13.266-10.734-24-24-24h-36c-26.531 0-48-21.469-48-48zm624 216v144c0 53.016-42.984 96-96 96h-240v168c0 26.531 21.469 48 48 48h300c6.375 0 12.469 2.5312 16.969 7.0312l103.03 103.03v-86.062c0-13.266 10.734-24 24-24h36c26.531 0 48-21.469 48-48v-360c0-26.531-21.469-48-48-48z" fill-rule="evenodd"/>
</svg>
