<?xml version="1.0" encoding="UTF-8"?>
<svg width="1200pt" height="1200pt" version="1.1" viewBox="0 0 1200 1200" xmlns="http://www.w3.org/2000/svg">
 <path d="m825 75h-450c-82.875 0-150 67.125-150 150v750c0 82.875 67.125 150 150 150h450c82.875 0 150-67.125 150-150v-750c0-82.875-67.125-150-150-150zm-525 150c0-41.25 33.75-75 75-75h450c41.25 0 75 33.75 75 75v675h-600zm525 825h-450c-41.25 0-75-33.75-75-75h600c0 41.25-33.75 75-75 75zm-78.75-708.74c-15.375-66.75-75-116.25-146.26-116.25-71.258 0-130.87 49.5-146.26 116.25-66.75 15.375-116.25 75-116.25 146.26s47.625 128.63 112.5 145.13v154.87c0 20.625 16.875 37.5 37.5 37.5h225c20.625 0 37.5-16.875 37.5-37.5v-154.87c64.875-16.5 112.5-75.375 112.5-145.13s-49.5-130.87-116.25-146.26zm-71.25 408.74h-150v-37.5h150zm37.5-187.5c-20.625 0-37.5 16.875-37.5 37.5v37.5h-150v-37.5c0-20.625-16.875-37.5-37.5-37.5-41.25 0-75-33.75-75-75s33.75-75 75-75c20.625 0 37.5-16.875 37.5-37.5 0-41.25 33.75-75 75-75s75 33.75 75 75c0 20.625 16.875 37.5 37.5 37.5 41.25 0 75 33.75 75 75s-33.75 75-75 75z"/>
</svg>
