<?xml version="1.0" encoding="UTF-8"?>
<svg width="1200pt" height="1200pt" version="1.1" viewBox="0 0 1200 1200" xmlns="http://www.w3.org/2000/svg">
 <path d="m600 600c144.74 0 262.5-117.75 262.5-262.5s-117.75-262.5-262.5-262.5-262.5 117.75-262.5 262.5 117.75 262.5 262.5 262.5zm0-450c103.5 0 187.5 84 187.5 187.5s-84 187.5-187.5 187.5-187.5-84-187.5-187.5 84-187.5 187.5-187.5z"/>
 <path d="m832.87 603.37c-19.5-4.125-40.5 0.75-58.125 13.5-102.38 74.25-247.5 74.25-349.87 0-17.25-12.375-38.25-17.625-58.125-13.5-104.25 21.375-179.63 114-179.63 220.13v262.5c0 20.625 16.875 37.5 37.5 37.5h750c20.625 0 37.5-16.875 37.5-37.5v-262.5c0-106.12-75.375-198.74-179.63-220.13zm104.62 445.13h-675v-225c0-70.875 50.25-132.37 117.38-146.63 0 0 0.75 0 1.125 0.75 64.125 46.5 139.87 70.875 219 70.875s154.87-24.375 217.87-71.625c69.375 14.25 119.62 75.75 119.62 146.63z"/>
</svg>
