<?xml version="1.0" encoding="UTF-8"?>
<svg width="1200pt" height="1200pt" version="1.1" viewBox="0 0 1200 1200" xmlns="http://www.w3.org/2000/svg">
 <path d="m937.5 150h-225c0-41.25 33.75-75 75-75h75c41.25 0 75 33.75 75 75zm37.5 337.5v-169.87c0-17.25-4.125-34.5-12-50.25l-29.625-59.25c-6-12.75-19.125-20.625-33.375-20.625h-150c-8.25 0-16.125 2.625-22.5 7.5 108 32.25 172.5 160.13 172.5 255 0 12.844-1.4062 25.266-3.4688 37.5h-76.875c3.1406-12.094 5.3438-24.469 5.3438-37.5 0-74.672-59.812-187.5-150-187.5s-150 112.83-150 187.5c0 13.031 2.1562 25.406 5.3438 37.5h-76.781c-2.0625-12.234-3.5156-24.656-3.5156-37.5 0-22.5 3.75-46.875 10.875-71.25l-7.875 4.125c-5.625 2.625-11.625 4.125-17.25 4.125-13.5 0-26.625-7.5-33.375-20.25-9.75-18.375-2.25-41.25 16.125-50.625l79.5-41.25-27.375-52.875-89.25 46.125c-5.625 3-11.625 4.125-17.25 4.125-13.5 0-26.625-7.5-33.375-20.25-9.375-18.375-2.25-40.875 16.125-50.625l89.25-46.125-0.375-0.75c-37.875-73.5-128.63-102.38-202.13-64.125-35.625 18.375-61.875 49.5-73.875 87.75-12.375 38.25-9 78.75 9.75 114.38l100.78 195h-45.281c-41.344 0-75 33.656-75 75v75c0 41.344 33.656 75 75 75h750c41.344 0 75-33.656 75-75v-75c0-41.344-33.656-75-75-75zm0 300c13.125 0 25.5-1.5 37.5-4.875v229.87c0 61.875-50.625 112.5-112.5 112.5h-600c-61.875 0-112.5-50.625-112.5-112.5v-229.87c12 3.375 24.375 4.875 37.5 4.875zm-487.5 112.5c0-20.625-16.875-37.5-37.5-37.5s-37.5 16.875-37.5 37.5v112.5c0 20.625 16.875 37.5 37.5 37.5s37.5-16.875 37.5-37.5zm150 0c0-20.625-16.875-37.5-37.5-37.5s-37.5 16.875-37.5 37.5v112.5c0 20.625 16.875 37.5 37.5 37.5s37.5-16.875 37.5-37.5zm150 0c0-20.625-16.875-37.5-37.5-37.5s-37.5 16.875-37.5 37.5v112.5c0 20.625 16.875 37.5 37.5 37.5s37.5-16.875 37.5-37.5z"/>
</svg>
