<?xml version="1.0" encoding="UTF-8"?>
<svg width="1200pt" height="1200pt" version="1.1" viewBox="0 0 1200 1200" xmlns="http://www.w3.org/2000/svg">
 <path d="m180.47 503.53c6.375 4.6875 9.9375 12.375 9.8438 20.531l-10.219 432.24c-0.375 13.453 4.6875 26.062 14.062 35.625 9.375 9.6094 21.938 14.859 35.391 14.859s25.922-5.2969 35.297-14.859c9.375-9.6094 14.391-22.219 14.062-35.625l-10.219-432.24c-0.23438-8.1562 3.4688-15.844 9.8438-20.531 37.312-27.609 60.469-83.766 60.469-146.53 0-90.234-49.219-163.69-109.55-163.69-60.375 0-109.55 73.453-109.55 163.69 0 62.766 23.156 118.92 60.469 146.53zm49.078-286.31c47.156 0 85.547 62.625 85.547 139.69 0 54.469-19.922 104.39-50.766 127.31-12.609 9.375-19.922 24.375-19.547 40.453l10.219 432.24c0.14062 6.8438-2.3906 13.453-7.2188 18.375-9.6094 9.8438-26.625 9.8438-36.375 0-4.7812-4.9219-7.3125-11.391-7.2188-18.375l10.219-432.24c0.375-15.938-6.9375-31.078-19.547-40.453-30.844-22.781-50.766-72.844-50.766-127.31 0-77.062 38.391-139.69 85.547-139.69z"/>
 <path d="m1071.6 438.84c5.625-8.2969 8.625-18.609 8.3906-28.781-3-119.53-15.234-180-20.391-200.39-2.3906-9.7031-11.625-16.547-22.547-16.547-12.469 0-22.688 9-23.156 20.625l-6.2344 142.22s-1.4531 0.23438-1.9219 0l-8.8594-142.69c-0.84375-11.297-11.062-20.156-23.156-20.156h-2.3906c-12.375 0-22.547 9-23.062 20.297l-8.8594 142.45s-1.5469 0.23438-2.0625 0l-6.2344-142.22c-0.60938-11.531-10.688-20.625-23.062-20.625-10.922 0-20.156 6.8438-22.688 16.547-5.0625 20.297-17.297 80.297-20.391 200.29-0.23438 10.312 2.7656 20.531 8.3906 28.922 9.2344 13.547 25.922 35.062 52.312 60.234 5.1562 4.9219 8.0625 11.766 7.7812 18.938l-10.312 438.37c-0.375 13.453 4.6875 26.062 14.062 35.625 9.375 9.6094 21.938 14.859 35.297 14.859 13.312 0 25.922-5.2969 35.297-14.859 9.375-9.6094 14.391-22.219 14.062-35.625l-10.312-438.47c-0.14062-7.0781 2.7656-14.062 7.9219-18.938 26.391-25.078 42.938-46.547 52.219-60.141zm-68.766 42.703c-10.078 9.6094-15.609 23.062-15.375 36.844l10.312 438.47c0.14062 6.8438-2.3906 13.453-7.2188 18.375-9.6094 9.8438-26.625 9.8438-36.375 0-4.7812-4.9219-7.3125-11.391-7.2188-18.375l10.312-438.37c0.375-13.781-5.2969-27.234-15.234-36.844-26.156-24.938-42-45.938-48.938-56.297-2.8594-4.2188-4.4531-9.4688-4.2188-14.766 2.7656-108.38 12.938-166.22 18.375-189.84l6.1406 137.39c0.70312 12.234 11.766 21.844 24.938 21.844 13.219 0 24.141-9.4688 24.938-21.609l8.7656-141.24h1.0781l8.7656 141.37c0.70312 12.141 11.625 21.609 24.844 21.609s24.375-9.7031 24.938-22.078l6.1406-137.16c5.3906 23.766 15.703 81.844 18.375 189.84 0.14062 5.2969-1.3125 10.453-4.2188 14.625-6.9375 10.312-22.688 31.312-48.844 56.297z"/>
 <path d="m600 305.53c-162.37 0-294.47 132.14-294.47 294.47 0 162.37 132.14 294.47 294.47 294.47 162.37 0 294.47-132.14 294.47-294.47 0-162.37-132.14-294.47-294.47-294.47zm0 564.94c-149.16 0-270.47-121.31-270.47-270.47s121.31-270.47 270.47-270.47 270.47 121.31 270.47 270.47-121.31 270.47-270.47 270.47z"/>
 <path d="m600 431.16c-93.141 0-168.84 75.703-168.84 168.84s75.703 168.84 168.84 168.84 168.84-75.703 168.84-168.84-75.703-168.84-168.84-168.84zm0 313.69c-79.922 0-144.84-65.062-144.84-144.84 0-79.777 65.062-144.84 144.84-144.84s144.84 65.062 144.84 144.84c0 79.777-65.062 144.84-144.84 144.84z"/>
</svg>
