<?xml version="1.0" encoding="UTF-8"?>
<svg width="1200pt" height="1200pt" version="1.1" viewBox="0 0 1200 1200" xmlns="http://www.w3.org/2000/svg">
 <path d="m200 0h50v1200h-50c-44 0-80-36-80-80v-1040c0-44.004 36-80 80-80z"/>
 <path d="m565.04 353.95c22.598 3.5938 39.004 22.656 39.004 45.352v130.7h181.91v-130.7c0-22.695 16.406-41.758 39.023-45.352 15.137-2.4219 28.848-11.172 37.578-23.945 8.8477-12.93 11.816-28.789 8.3984-44.648-4.5703-21.094-21.895-38.086-43.145-42.305-12.93-2.5391-25.41-0.97656-36.953 4.6875-7.9102 3.8672-17.051 4.1016-25.137 0.625-8.0664-3.4766-14.199-10.312-16.797-18.672-7.3242-23.75-28.984-39.688-53.926-39.688s-46.602 15.938-53.926 39.688c-2.5977 8.3594-8.7305 15.195-16.797 18.672-8.0664 3.5156-17.227 3.2812-25.137-0.625-11.543-5.7422-24.004-7.3438-36.914-4.6875-21.289 4.2188-38.613 21.211-43.184 42.305-3.418 15.859-0.44922 31.719 8.3984 44.648 8.75 12.773 22.441 21.523 37.598 23.945z"/>
 <path d="m604.04 590h181.91v60h-181.91z"/>
 <path d="m1e3 0h-690v1200h690c44.004 0 80-36 80-80v-1040c0-44.004-36-80-80-80zm-539.59 272.66c9.5312-44.102 45.723-79.609 90.059-88.438 15.508-3.125 31.094-3.0859 46.074-0.19531 20.918-33.203 57.559-54.023 98.457-54.023s77.539 20.859 98.457 54.023c15-2.8906 30.547-2.9297 46.113 0.19531 44.277 8.8281 80.488 44.336 90.02 88.398v0.039062c6.9531 32.148 0.74219 64.531-17.5 91.211-15.762 23.047-39.434 39.688-66.133 46.836v253.28c0 25.391-20.625 46.016-45.996 46.016h-209.92c-25.371 0-45.996-20.625-45.996-46.016v-253.28c-26.699-7.1484-50.371-23.789-66.133-46.836-18.242-26.68-24.453-59.062-17.5-91.211zm474.59 797.34h-480c-16.562 0-30-13.438-30-30s13.438-30 30-30h480c16.562 0 30 13.438 30 30s-13.438 30-30 30zm0-160h-480c-16.562 0-30-13.438-30-30s13.438-30 30-30h480c16.562 0 30 13.438 30 30s-13.438 30-30 30z"/>
</svg>
