<?xml version="1.0" encoding="UTF-8"?>
<svg width="1200pt" height="1200pt" version="1.1" viewBox="0 0 1200 1200" xmlns="http://www.w3.org/2000/svg">
 <path d="m301.22 106.92h449.29l90.75-45.375c1.6406-0.98438 3.5625-1.5469 5.4844-1.5469h52.031c34.453 0.046875 62.344 27.984 62.438 62.391v766.22c-0.09375 34.453-27.984 62.344-62.438 62.391h-52.031c-1.9219 0-3.8438-0.51562-5.4844-1.5469l-90.75-45.375h-19.031v27.516h25.219c2.7188 0 5.3906 1.0781 7.3125 3 1.9219 1.9688 3.0469 4.5938 3.0469 7.3125v187.74c0 2.7656-1.125 5.3906-3.0469 7.3125-1.9219 1.9688-4.5938 3.0469-7.3125 3.0469h-507.47c-2.7656 0-5.3906-1.0781-7.3125-3.0469-1.9688-1.9219-3.0469-4.5469-3.0469-7.3125v-187.74c0-2.7656 1.0781-5.3906 3.0469-7.3125 1.9219-1.9688 4.5469-3.0469 7.3125-3.0469h25.219l-0.046875-27.516h-21.375c-5.7188 0-10.359-4.6406-10.359-10.359v-728.21c0.09375-32.25 26.25-58.406 58.547-58.547zm137.48 328.08c0.14062-0.23438 0.375-0.42188 0.5625-0.65625 0.79688-0.79688 1.7344-1.4531 2.7188-1.9219l0.14062-0.09375 0.1875-0.09375v0.046875c0.98438-0.46875 2.0156-0.70312 3.0938-0.84375h2.2031c1.0781 0.14062 2.1094 0.375 3.0938 0.84375l0.1875 0.09375 0.14062 0.09375v-0.046875c0.98438 0.46875 1.9219 1.125 2.7188 1.9219 0.1875 0.1875 0.42188 0.42188 0.60938 0.65625l42.938 49.922c1.9219 1.9219 3 4.5469 3 7.3125v114.89h173.72v-203.26h-342.14v203.26h60.844v-114.89c0-2.7656 1.0781-5.3906 3-7.3125l42.938-49.922zm41.062 61.031-33.188-38.578-33.188 38.578v111.09h66.375zm-6.8906 241.64h26.719c4.5-17.109 2.7656-35.297-4.7812-51.281-7.6875 0.65625-15.234 2.4844-22.406 5.3906-15.375 6.2812-28.219 17.531-36.469 31.922l-0.28125 0.46875c-8.1094 14.297-11.344 30.844-9.0938 47.109 1.0312 7.6406 3.2344 15.047 6.5156 21.984 12.797-1.0312 25.078-5.2969 35.719-12.469-4.1719-10.406-6.3281-21.562-6.3281-32.766 0-5.7188 4.6406-10.359 10.312-10.359zm48 0h18.188c-0.375-11.25-3.2344-22.266-8.3906-32.25-3.2344-6.2812-7.3594-12.047-12.234-17.203l-0.75-0.1875 0.046875 0.046875c1.0312 3.1406 1.9219 6.3281 2.625 9.5625 3 13.172 3.1406 26.859 0.46875 40.078zm38.812 0h67.594c2.7188 0 5.3906 1.0781 7.3125 3 1.9219 1.9688 3.0469 4.5938 3.0469 7.3594 0 23.203-9.2344 45.469-25.688 61.875-1.7344 1.7344-3.5156 3.375-5.3438 4.9219h67.453v-187.03h-342.19v186.98h72.75c-37.172-29.391-47.156-81.562-23.484-122.63l0.09375-0.14062h-0.046875c12.703-21.984 33.609-38.016 58.078-44.578 24.516-6.5625 50.625-3.0938 72.609 9.5625l0.5625 0.375c6.6094 3.8906 12.75 8.5312 18.281 13.922 0.23438 0.1875 0.42188 0.375 0.60938 0.60938v-0.046875c7.125 7.0781 13.078 15.234 17.672 24.141 6.6562 12.938 10.266 27.188 10.641 41.719zm56.391 20.672h-132.05c5.0625 32.531 33.094 56.531 66 56.531 32.953 0 60.938-24 66.047-56.531zm-127.22 52.266-0.75-0.70312h0.046875c-3.375-3.4219-6.5156-7.0781-9.2812-10.969-9.7031 6.2344-20.438 10.688-31.734 13.125l-1.2188 0.23438 0.51562 0.5625v-0.046875c4.7812 1.1719 9.7031 1.8281 14.625 2.0156h5.7188c7.5469-0.28125 15-1.6875 22.125-4.2188zm-78.609-18.938h0.046875c-1.9219-5.7656-3.3281-11.672-4.125-17.625-2.8125-20.766 1.2656-41.859 11.625-60 0.09375-0.23438 0.1875-0.46875 0.32812-0.65625 10.547-18.328 26.953-32.672 46.594-40.641 5.5781-2.2969 11.391-4.0312 17.297-5.25l-0.51562-0.5625c-32.297-7.6875-65.859 6.7031-82.453 35.484s-12.281 65.016 10.547 89.109l0.70312 0.1875zm67.453-483.61 19.922-26.203c3.4688-4.5 9.9375-5.3906 14.484-1.9219s5.3906 9.9375 1.9219 14.484l-12.844 16.875v-0.046875c13.5 5.5312 23.812 16.875 27.938 30.844 4.1719 13.969 1.7344 29.109-6.5625 41.062h151.45v-187.03h-342.14v187.03h36.234c-14.156-20.438-10.359-48.281 8.7188-64.219s47.156-14.719 64.781 2.8594c1.3125 1.3125 2.5781 2.7188 3.75 4.2188 1.125-1.5 2.3906-2.9062 3.7031-4.2188 7.7344-7.7344 17.812-12.562 28.688-13.781zm5.2969 20.391h0.046875c-13.078 0-24.281 9.2344-26.859 22.031-2.5312 12.844 4.3125 25.641 16.406 30.656 12.047 4.9688 25.969 0.75 33.234-10.078 7.2188-10.875 5.8125-25.359-3.4219-34.594-5.1094-5.1094-12.094-8.0156-19.359-8.0156zm-56.109 8.0156h0.046875c-9.2344-9.2344-23.719-10.688-34.594-3.4219-10.828 7.2656-15.094 21.188-10.078 33.281s17.859 18.938 30.656 16.406c12.844-2.5781 22.078-13.828 22.031-26.906 0.046875-7.2656-2.8594-14.203-8.0156-19.359zm-70.359 709.64h292.87c5.7188 0 10.312-4.5938 10.312-10.312s-4.5938-10.359-10.312-10.359h-292.87c-5.7188 0-10.359 4.6406-10.359 10.359s4.6406 10.312 10.359 10.312zm354.28-142.08h-415.74v27.516h415.74zm-451.22 215.29h486.74v-167.06h-486.74zm576.79-195.32v-836.95l-73.172 36.562v763.74zm62.391-843.32h-41.672v849.61h41.672c23.016-0.09375 41.625-18.703 41.672-41.672v-766.22c-0.046875-22.969-18.656-41.625-41.672-41.719zm-587.58 744.52c0 2.7188 1.0781 5.3906 3 7.3125 1.9688 1.9219 4.5938 3.0469 7.3594 3.0469h362.81c2.7188 0 5.3438-1.125 7.3125-3.0469 1.9219-1.9688 3-4.5938 3-7.3125v-639.37c0-2.7656-1.0781-5.3906-3-7.3594-1.9688-1.9219-4.5938-3-7.3125-3h-362.76c-5.7188 0-10.359 4.6406-10.359 10.359v639.37zm431.34-697.55h-441.32c-20.906 0.046874-37.828 16.969-37.875 37.828v717.89h479.21z" fill-rule="evenodd"/>
</svg>
