<?xml version="1.0" encoding="UTF-8"?>
<svg width="1200pt" height="1200pt" version="1.1" viewBox="0 0 1200 1200" xmlns="http://www.w3.org/2000/svg">
 <path d="m832.71 319.46c-3.75 0-7.6484 0.16797-11.699 0.50781-21.578-31.938-53.043-55.91-89.562-68.238-36.52-12.324-76.074-12.324-112.59 0-36.516 12.328-67.98 36.301-89.559 68.238-4.0312-0.33594-7.9141-0.50781-11.68-0.50781-48.305 0.039062-93.746 22.926-122.54 61.715-28.789 38.789-37.527 88.914-23.57 135.16 13.957 46.246 48.969 83.164 94.41 99.551v299.59c0 4.9727 1.9766 9.7422 5.4922 13.258 3.5156 3.5156 8.2852 5.4922 13.258 5.4922h380.98c4.9727 0 9.7422-1.9766 13.262-5.4922 3.5156-3.5156 5.4883-8.2852 5.4883-13.258v-299.79c45.492-16.32 80.562-53.219 94.547-99.477 13.988-46.258 5.2383-96.41-23.59-135.2-28.828-38.785-74.32-61.629-122.65-61.574zm14.195 577.26h-343.48v-81.094h343.48zm14.137-313.12c-4.0469 1.0273-7.6328 3.3711-10.191 6.668-2.5625 3.293-3.9492 7.3477-3.9492 11.52v176.25h-343.48v-176.16c0.003906-4.2305-1.4258-8.3359-4.0547-11.652-2.6289-3.3164-6.3008-5.6445-10.418-6.6094-35.484-9.0703-64.531-34.5-78.215-68.473-13.68-33.973-10.367-72.434 8.9258-103.57 19.289-31.133 52.254-51.219 88.77-54.086-7.1445 15.445-12.738 31.562-16.707 48.113l36.508 8.5703v-0.003906c5.6445-22.777 14.684-44.578 26.812-64.668 16.277-28.27 42.004-49.895 72.656-61.062 30.652-11.172 64.258-11.172 94.91 0 30.648 11.168 56.379 32.793 72.656 61.062 12.059 20.102 21.047 41.891 26.664 64.648l36.508-8.5312h-0.003906c-3.9688-16.551-9.5586-32.672-16.688-48.129 36.559 2.8438 69.57 22.949 88.875 54.125 19.305 31.176 22.586 69.684 8.8438 103.68-13.746 33.996-42.875 59.398-78.422 68.395z"/>
 <path d="m1126.7 40.18h-997.12c-15.34 0.015624-30.051 6.1172-40.902 16.965-10.852 10.848-16.957 25.555-16.977 40.898v1001.7c0.023438 15.34 6.1289 30.047 16.98 40.895 10.852 10.844 25.559 16.945 40.898 16.965h997.12c4.9727 0 9.7422-1.9727 13.262-5.4883 3.5156-3.5195 5.4883-8.2891 5.4883-13.262v-1079.9c0-4.9727-1.9727-9.7422-5.4883-13.258-3.5195-3.5156-8.2891-5.4922-13.262-5.4922zm-921.96 1080h-75.168c-5.4023 0-10.582-2.1445-14.402-5.9609-3.8242-3.8203-5.9727-8.9961-5.9766-14.398v-1001.8c0.003907-5.4023 2.1523-10.582 5.9766-14.398 3.8203-3.8203 9-5.9648 14.402-5.9648h75.168zm903.21 0h-865.7v-1042.5h865.7z"/>
 <path d="m601.54 580.12h147.24v37.5h-147.24z"/>
</svg>
