<?xml version="1.0" encoding="UTF-8"?>
<svg width="1200pt" height="1200pt" version="1.1" viewBox="0 0 1200 1200" xmlns="http://www.w3.org/2000/svg">
 <path d="m600 150c-38.625 0-75.703 15.375-103.03 42.656l-286.64 286.64c-38.625 38.625-60.328 91.078-60.328 145.69v300c0 68.766 56.25 125.02 125.02 125.02h649.97c68.766 0 125.02-56.25 125.02-125.02v-300c0-54.609-21.703-107.06-60.328-145.69l-286.64-286.64c-27.328-27.281-64.406-42.656-103.03-42.656zm-75 549.98h150c41.109 0 75 33.891 75 75v225h-300v-225c0-41.109 33.891-75 75-75z"/>
</svg>
