<?xml version="1.0" encoding="UTF-8"?>
<svg width="1200pt" height="1200pt" version="1.1" viewBox="0 0 1200 1200" xmlns="http://www.w3.org/2000/svg">
 <path d="m270.94 459.94-11.625-37.5-29.625-95.859c-11.719-37.969-46.875-63.891-86.625-63.891h-68.062c-24.328 0.5625-24.984 36.984 0 37.5h68.062c23.438 0 43.875 15.188 50.812 37.688 39.797 127.97 84.281 273.42 124.13 401.26l54 174.74c12.75 40.875 50.062 68.438 92.812 68.438h4.6875c-42.281 55.594 1.7344 141.14 72 139.5 70.266 1.5 114.28-83.719 72-139.5h168.37c-42.328 54.891 1.9688 141.79 72 139.5 70.172 1.5 114.09-83.812 71.812-139.5h53.438c24.516-0.46875 24.844-37.031 0-37.5h-514.31c-26.25 0-49.125-16.875-57-42l-16.312-52.875h596.76c7.9219 0 14.812-4.9219 17.438-12.422 25.266-72.656 125.48-357.74 125.48-357.74 3.375-9.7031-3.7969-19.828-14.062-19.828 0 0-578.16-0.046874-846.19 0zm33.938 109.88c-3.9375-12.516-18.188-59.062-22.312-72.375h167.06c1.9219 13.453 8.5781 59.719 10.312 72.375zm35.25 114-23.625-76.5h148.69c1.9688 13.875 11.578 82.969 13.312 95.25h-132.56zm39.75 128.63-22.312-72.375h126.24l10.266 72.375zm286.69 0h-134.63l-10.266-72.375h144.89zm0-109.88h-150.19c-1.6406-11.953-11.438-81.703-13.312-95.25h163.5zm0-132.74h-168.74c-1.6875-12.469-8.3906-59.109-10.312-72.375h179.06zm169.69 242.63h-132.19v-72.375h136.5zm7.6875-128.63-1.125 18.75h-138.74v-95.25h144.37zm7.875-132.74-1.125 18.75h-146.63v-72.375h150.94zm123 261.37h-101.25l4.4531-72.375h122.26zm45.188-128.63-6.5625 18.75h-133.13c0.75-11.906 4.8281-81.75 5.625-95.25h160.82l-26.812 76.5zm46.688-132.74-6.6562 18.75h-171.84c0.75-12.422 3.5156-59.156 4.3125-72.375h192.94z"/>
 <path d="m890.63 327.94c20.016 25.078 28.359 59.953 24 94.5h174.19l9.375-59.25c5.0625-31.312-8.9062-61.172-34.688-80.062-16.219-11.859-16.5-47.812-16.5-47.812l4.6875 0.75c12.188 2.5781 25.219-7.1719 26.812-19.5l5.4375-34.312c2.1562-12.516-7.0312-25.172-19.5-27l-91.875-14.438c-12.75-2.0625-24.75 6.75-26.812 19.5l-5.4375 34.5c-2.1562 12.469 6.9844 25.172 19.5 26.812l4.6875 0.75s-9.0938 33-30.562 40.312c-25.5 8.6719-46.312 27.562-54.75 52.875 4.125 3.5625 8.0625 7.875 11.438 12.375z"/>
 <path d="m309.37 403.31c5.8125 6 12 12.375 18 19.125h64.312c-0.51562-0.32812-3.6562-37.312-3.9375-37.875l-32.625-15.938c-21.844-11.109-5.4844-44.203 16.5-33.562l11.625 5.625-1.6875-17.625-32.625-15.938c-21.75-11.016-5.7656-44.25 16.5-33.562l11.625 5.625-1.875-18.375c-1.875-24.562 34.359-28.266 37.312-3.75l1.875 18.375 10.312-7.875c19.641-14.859 41.953 14.344 22.875 29.625l-28.688 22.125 1.6875 17.625 10.312-7.875c19.641-14.906 41.953 14.391 22.875 29.625l-28.688 22.125s3.75 40.125 3.375 41.625h74.062c15.375-30 32.625-67.875 38.625-83.625 13.125-29.344-8.7656-44.484-29.812-47.25-9.6562-0.84375-15.656-12.562-10.5-20.812 1.3125-2.4375 2.25-4.875 3-7.6875 10.219-28.406-16.219-60.75-46.312-56.438-10.781 3.7969-23.25-3-21.375-15.375-3.8438-58.078-90.984-53.906-86.625 6.5625 3.5625 10.172-1.0781 21.047-12.75 21.375-25.922-1.0312-47.062 22.5-44.25 48-0.1875 15.234 15.797 24.234 12.562 36.75-1.3125 4.5-4.6875 8.0625-9 9.375-52.5 20.438-18.094 59.391 13.312 90z"/>
 <path d="m887.26 414.56c7.1719-51.234-35.953-113.11-89.25-87.141 2.625-13.312 8.2031-29.484 20.438-46.125 6-8.4375 4.3125-20.062-3.9375-26.25-8.4375-6.1875-20.062-4.3125-26.25 3.9375-18.844 25.547-26.156 51.047-28.734 70.453-11.438-4.3594-23.578-5.7188-35.016-2.25-2.4375 31.734-8.5312 65.297-16.125 95.25h177.74c0.5625-2.625 0.9375-5.25 1.125-7.875z"/>
 <path d="m531.94 267.94c73.406 27.281 30.094 96 2.0625 154.5h145.13c3-10.5 5.625-21.562 7.875-32.812l-43.125-6c-10.312-1.5-17.438-10.875-16.125-21.188 1.5-10.125 10.875-17.438 21.188-15.938l44.438 6.1875c3.5625-24.891 5.1562-50.766 4.875-75.375 0 0-52.875-7.3125-52.875-7.3125-10.125-1.3125-17.438-10.875-15.938-21.188 1.5-10.125 10.875-17.438 21.188-15.938l45.75 6.375c-6.75-71.438-30.75-123.37-63.562-127.87-22.875-3.1875-48.75 17.812-71.25 54.562l37.5 5.25c22.781 3.3281 20.297 37.031-2.625 37.312-0.9375 0-53.438-7.3125-53.438-7.3125-4.125 9.1875-8.0625 18.938-11.625 29.25 3.6562 11.859 3.4219 25.781 0.5625 37.5z"/>
</svg>
