<?xml version="1.0" encoding="UTF-8"?>
<svg width="1200pt" height="1200pt" version="1.1" viewBox="0 0 1200 1200" xmlns="http://www.w3.org/2000/svg">
 <path d="m318.14 836.44h563.72c19.266 0 31.219-21.234 21.562-38.156-29.625-51.844-75.375-154.18-75.375-292.45-0.046876-107.34-71.578-197.63-169.08-224.16-4.0312-31.594-23.484-60-58.969-59.719-35.438-0.32812-54.938 28.125-58.969 59.719-97.5 26.531-169.03 116.81-169.08 224.16 0 138.28-45.656 240.61-75.328 292.45-9.6562 16.922 2.25 38.156 21.516 38.156z"/>
 <path d="m516 869.26c-18.094 0-31.125 16.594-25.641 32.906 14.766 43.969 58.266 75.797 109.69 75.797s94.922-31.875 109.69-75.797c5.4375-16.312-7.5469-32.906-25.641-32.906z"/>
</svg>
