<?xml version="1.0" encoding="UTF-8"?>
<svg width="1200pt" height="1200pt" version="1.1" viewBox="0 0 1200 1200" xmlns="http://www.w3.org/2000/svg">
 <path d="m1072.6 255.89v36.234c-14.672-12.094-31.734-21.047-50.016-26.25-12.188-3.5156-24.797-5.2969-37.5-5.25h-306.52l-46.125-92.25h352.64c48.328 0 87.516 39.188 87.516 87.516z"/>
 <path d="m470.48 836.76h258.89v70.125h-258.89z"/>
 <path d="m764.86 522.14c-9.7969-1.125-19.688-0.65625-29.344 1.3594-15.938 3.5156-32.531-1.4531-43.875-13.125-24.891-25.172-58.828-39.328-94.219-39.328s-69.281 14.156-94.172 39.328c-11.062 10.734-26.625 15.375-41.766 12.516-5.25-0.89062-10.641-1.3594-15.984-1.4062-47.578-0.23438-87.328 36.188-91.172 83.625-3.8906 47.438 29.438 89.812 76.406 97.266 23.156 3.9844 39.984 24.141 39.75 47.625v36.609h259.03v-36.609c-0.1875-23.297 16.641-43.219 39.609-47.016 44.859-7.2656 77.531-46.5 76.453-91.969-1.0781-45.422-35.531-83.109-80.719-88.266z"/>
 <path d="m985.13 310.64h-314.26c-14.156-0.09375-27.047-8.1094-33.375-20.766l-57.75-114.89c-14.812-29.625-45.094-48.375-78.234-48.375h-286.64c-48.328 0-87.516 39.188-87.516 87.516v771.98c0 48.328 39.188 87.516 87.516 87.516h770.26c48.328 0 87.516-39.188 87.516-87.516v-587.48c0.14062-23.297-9.0469-45.656-25.453-62.203-16.453-16.5-38.766-25.781-62.062-25.781zm-205.64 440.72v157.64c-0.046875 26.344-21.375 47.672-47.719 47.766h-263.53c-26.344-0.09375-47.672-21.422-47.719-47.766v-157.64c-72.141-12.656-122.58-78.469-116.06-151.4 6.5156-72.938 67.781-128.76 141.05-128.44 7.8281-0.046875 15.656 0.65625 23.391 1.9688 34.359-33.844 80.719-52.734 129-52.453 48.234 0.28125 94.406 19.688 128.34 53.953 14.484-2.9531 29.344-3.6562 44.016-1.9688 69.75 7.6406 123.24 65.344 125.58 135.47 2.3438 70.125-47.25 131.29-116.34 143.53z"/>
</svg>
