<?xml version="1.0" encoding="UTF-8"?>
<svg width="1200pt" height="1200pt" version="1.1" viewBox="0 0 1200 1200" xmlns="http://www.w3.org/2000/svg">
 <path d="m773.4 703.12h-196.8c-23.785 0-43.121-19.336-43.121-43.141v-237.45c-25.031-6.7031-47.223-22.301-62-43.91-17.105-25.012-22.922-55.371-16.406-85.512 8.9375-41.344 42.867-74.633 84.43-82.91 14.539-2.9297 29.148-2.8906 43.195-0.18359 19.609-31.129 53.961-50.648 92.301-50.648s72.695 19.555 92.301 50.648c14.062-2.7109 28.641-2.7461 43.23 0.18359 41.508 8.2773 75.457 41.566 84.395 82.875v0.039063c6.5156 30.141 0.69922 60.5-16.406 85.512-14.773 21.609-36.969 37.207-62 43.91v237.45c0 23.805-19.336 43.141-43.121 43.141zm-183.67-56.25h170.55v-235.04c0-21.277 15.383-39.145 36.586-42.516 14.191-2.2695 27.047-10.473 35.23-22.449 8.2969-12.121 11.078-26.988 7.875-41.859-4.2852-19.773-20.527-35.703-40.449-39.66-12.121-2.3828-23.824-0.91406-34.641 4.3945-7.418 3.625-15.984 3.8438-23.566 0.58594-7.5625-3.2578-13.312-9.668-15.746-17.504-6.8672-22.266-27.172-37.207-50.555-37.207-23.383 0-43.688 14.941-50.555 37.207-2.4336 7.8359-8.1875 14.246-15.746 17.504-7.5625 3.2969-16.152 3.0742-23.566-0.58594-10.824-5.3867-22.504-6.8867-34.609-4.3945-19.957 3.957-36.199 19.887-40.484 39.66-3.2031 14.867-0.42188 29.738 7.875 41.859 8.2031 11.973 21.039 20.18 35.246 22.449 21.184 3.3672 36.566 21.238 36.566 42.516v235.04z"/>
 <path d="m788.25 590.62h-226.5c-15.527 0-28.125-12.598-28.125-28.125s12.598-28.125 28.125-28.125h226.5c15.527 0 28.125 12.598 28.125 28.125s-12.598 28.125-28.125 28.125z"/>
 <path d="m975 1190.6h-750c-56.871 0-103.12-46.254-103.12-103.12v-975c0-56.871 46.254-103.12 103.12-103.12h750c56.871 0 103.12 46.254 103.12 103.12v975c0 56.871-46.254 103.12-103.12 103.12zm-750-1125c-25.855 0-46.875 21.02-46.875 46.875v975c0 25.855 21.02 46.875 46.875 46.875h750c25.855 0 46.875-21.02 46.875-46.875v-975c0-25.855-21.02-46.875-46.875-46.875z"/>
 <path d="m300 1190.6c-15.527 0-28.125-12.598-28.125-28.125v-1125c0-15.527 12.598-28.125 28.125-28.125s28.125 12.598 28.125 28.125v1125c0 15.527-12.598 28.125-28.125 28.125z"/>
 <path d="m900 890.62h-450c-15.527 0-28.125-12.598-28.125-28.125s12.598-28.125 28.125-28.125h450c15.527 0 28.125 12.598 28.125 28.125s-12.598 28.125-28.125 28.125z"/>
 <path d="m900 1040.6h-450c-15.527 0-28.125-12.598-28.125-28.125s12.598-28.125 28.125-28.125h450c15.527 0 28.125 12.598 28.125 28.125s-12.598 28.125-28.125 28.125z"/>
</svg>
