<?xml version="1.0" encoding="UTF-8"?>
<svg width="1200pt" height="1200pt" version="1.1" viewBox="0 0 1200 1200" xmlns="http://www.w3.org/2000/svg">
 <path d="m432.54 338.91c-9.9727-3.043-20.34-4.5977-30.77-4.6133-63.449 0-115.07 56.773-115.07 126.56h0.003906c-0.89844 27.887 7.6211 55.266 24.188 77.715 16.566 22.453 40.215 38.668 67.125 46.035v121.88c0 4.9727 1.9766 9.7422 5.4922 13.258s8.2852 5.4922 13.258 5.4922h315.34c4.9727 0 9.7422-1.9766 13.258-5.4922s5.4922-8.2852 5.4922-13.258v-122.66c26.129-7.9688 48.895-24.344 64.762-46.578 15.867-22.234 23.949-49.086 22.988-76.387 0-69.789-51.617-126.56-115.07-126.56h0.003906c-11.367 0.015625-22.66 1.8711-33.434 5.4961-6.1211-27.293-21.098-51.797-42.594-69.691-21.5-17.898-48.312-28.184-76.262-29.254-27.879 0.80078-54.691 10.883-76.195 28.645-21.5 17.762-36.461 42.191-42.512 69.418zm118.73-60.562c23 1.6172 44.562 11.789 60.438 28.516 15.871 16.723 24.906 38.785 25.324 61.84 0.47656 6.5977 4.3906 12.453 10.305 15.418 5.9102 2.9609 12.945 2.5898 18.516-0.98047 11.188-7.3711 24.285-11.316 37.688-11.344 42.789 0 77.57 39.957 77.57 89.062h-0.003906c1.043 20.883-5.5859 41.426-18.637 57.762-13.047 16.336-31.621 27.332-52.219 30.926-4.625 0.46484-8.9141 2.6328-12.031 6.0781-3.1172 3.4492-4.8438 7.9297-4.8438 12.578v119.57h-277.86v-100.63h81.355v-37.5h-99.242c-21.203-2.7578-40.574-13.453-54.199-29.93-13.625-16.477-20.496-37.508-19.227-58.852 0-49.105 34.781-89.062 77.57-89.062h-0.003906c12.562 0.003906 24.883 3.4453 35.625 9.957 5.5469 3.3047 12.402 3.5195 18.148 0.57812 5.7461-2.9453 9.5703-8.6406 10.129-15.07 0.51562-22.852 9.6016-44.676 25.449-61.145 15.852-16.469 37.312-26.379 60.125-27.77z"/>
 <path d="m941.38 48.207h-640.33c-41.324 0.042969-80.945 16.48-110.17 45.703-29.223 29.219-45.656 68.84-45.703 110.16v865.29c0.10937 21.977 8.9375 43.008 24.543 58.477 15.609 15.469 36.715 24.109 58.691 24.023h807.66c4.9727 0 9.7422-1.9727 13.258-5.4883 3.5156-3.5195 5.4922-8.2891 5.4922-13.262v-982.03c0-4.9727-1.9766-9.7422-5.4922-13.258s-8.2852-5.4922-13.258-5.4922h-75.938v-65.379c0-4.9727-1.9766-9.7422-5.4922-13.258s-8.2852-5.4922-13.258-5.4922zm-18.75 806.06h-739.95v-495.39l271.88-273.17h468.08zm-739.95 37.5h739.95v122.16h-739.95zm118.37-806.06h100.67l-219.04 220.03v-101.66c0.035156-31.383 12.52-61.469 34.711-83.66 22.188-22.191 52.277-34.672 83.66-34.707zm716.25 84.133v944.45h-788.89c-12.031 0.089843-23.605-4.5977-32.18-13.035s-13.449-19.934-13.555-31.965v-17.945l758.7 0.003906c4.9727 0 9.7422-1.9766 13.258-5.4922s5.4922-8.2852 5.4922-13.258v-862.77z"/>
</svg>
