<?xml version="1.0" encoding="UTF-8"?>
<svg width="1200pt" height="1200pt" version="1.1" viewBox="0 0 1200 1200" xmlns="http://www.w3.org/2000/svg">
 <path d="m299.5 312.03v-134.85c0-9.3828 7.6328-17.012 17.012-17.012h27.062c9.3789 0 17.012 7.6328 17.012 17.012v134.85c0 9.3789-7.6289 17.008-17.008 17.008h-27.062c-9.3828 0.003907-17.016-7.6328-17.016-17.012z"/>
 <path d="m1074.6 433.95v-106.89c0-46.527-37.848-84.375-84.375-84.375h-42.805v69.348c0 35.227-28.66 63.887-63.887 63.887h-27.062c-35.227 0-63.887-28.66-63.887-63.887v-69.348h-115.12v69.348c0 35.227-28.66 63.887-63.887 63.887h-27.059c-35.227 0-63.887-28.66-63.887-63.887v-69.348l-115.13 0.003906v69.348c0 35.227-28.656 63.883-63.883 63.883h-27.066c-35.227-0.003906-63.887-28.66-63.887-63.887v-69.348l-42.797 0.003906c-46.527 0-84.375 37.848-84.375 84.375v106.89z"/>
 <path d="m586.47 329.04h27.059c9.3789 0 17.012-7.6328 17.012-17.012v-134.85c0-9.3828-7.6328-17.012-17.012-17.012l-27.059-0.003907c-9.3789 0-17.012 7.6328-17.012 17.012v134.85c0.003907 9.3828 7.6367 17.016 17.012 17.016z"/>
 <path d="m856.43 329.04h27.062c9.3789 0 17.012-7.6328 17.012-17.012l-0.003906-134.85c0-9.3828-7.6328-17.012-17.012-17.012l-27.062-0.003907c-9.3789 0-17.012 7.6328-17.012 17.012v134.85c0.003906 9.3828 7.6328 17.016 17.016 17.016z"/>
 <path d="m554.27 605.84h91.457v91.457h-91.457z"/>
 <path d="m317.14 840.21h91.457v91.457h-91.457z"/>
 <path d="m554.27 840.21h91.457v91.457h-91.457z"/>
 <path d="m317.14 605.84h91.457v91.457h-91.457z"/>
 <path d="m791.41 840.21h91.457v91.457h-91.457z"/>
 <path d="m125.44 480.82v508.24c0 46.527 37.848 84.375 84.375 84.375h780.36c46.527 0 84.375-37.848 84.375-84.375v-508.24zm330.03 474.28c0 12.941-10.496 23.438-23.438 23.438h-138.33c-12.941 0-23.438-10.496-23.438-23.438v-138.33c0-12.941 10.496-23.438 23.438-23.438h138.33c12.941 0 23.438 10.496 23.438 23.438zm0-234.37c0 12.941-10.496 23.438-23.438 23.438h-138.33c-12.941 0-23.438-10.496-23.438-23.438v-138.33c0-12.941 10.496-23.438 23.438-23.438h138.33c12.941 0 23.438 10.496 23.438 23.438zm237.14 234.37c0 12.941-10.496 23.438-23.438 23.438h-138.33c-12.941 0-23.438-10.496-23.438-23.438v-138.33c0-12.941 10.496-23.438 23.438-23.438h138.33c12.941 0 23.438 10.496 23.438 23.438zm0-234.37c0 12.941-10.496 23.438-23.438 23.438h-138.33c-12.941 0-23.438-10.496-23.438-23.438v-138.33c0-12.941 10.496-23.438 23.438-23.438h138.33c12.941 0 23.438 10.496 23.438 23.438zm237.13 234.37c0 12.941-10.496 23.438-23.438 23.438h-138.33c-12.941 0-23.438-10.496-23.438-23.438v-138.33c0-12.941 10.496-23.438 23.438-23.438h138.33c12.941 0 23.438 10.496 23.438 23.438zm0-234.37c0 12.941-10.496 23.438-23.438 23.438h-138.33c-12.941 0-23.438-10.496-23.438-23.438v-138.33c0-12.941 10.496-23.438 23.438-23.438h138.33c12.941 0 23.438 10.496 23.438 23.438z"/>
 <path d="m791.41 605.84h91.457v91.457h-91.457z"/>
</svg>
