<?xml version="1.0" encoding="UTF-8"?>
<svg width="1200pt" height="1200pt" version="1.1" viewBox="0 0 1200 1200" xmlns="http://www.w3.org/2000/svg">
 <path d="m137.68 137.72c59.906-59.859 138.71-89.297 217.78-88.641 78.938 0.70312 158.16 31.453 218.76 92.062 60.656 60.75 91.453 139.92 92.109 218.81 0.60938 71.531-23.438 142.87-72.328 200.06l53.391 53.391 43.359-43.359 460.18 460.18-120.66 120.66-460.18-460.18 43.359-43.359-53.391-53.391c-57.281 48.891-128.58 72.938-200.06 72.328-78.891-0.70312-158.11-31.453-218.76-92.109-60.656-60.609-91.453-139.82-92.156-218.76-0.70312-79.031 28.781-157.82 88.594-217.69zm553.08 500.21-52.781 52.781 392.29 392.29 52.781-52.781zm-519.19-466.4c-50.438 50.438-75.281 116.86-74.672 183.52 0.5625 66.703 26.719 133.74 78.188 185.26 51.422 51.516 118.5 77.625 185.26 78.188 66.609 0.5625 133.08-24.281 183.52-74.672 50.391-50.438 75.234-116.91 74.625-183.52-0.5625-66.75-26.672-133.82-78.094-185.26-51.609-51.516-118.64-77.625-185.34-78.188-66.609-0.5625-133.08 24.281-183.47 74.625z"/>
</svg>
