<?xml version="1.0" encoding="UTF-8"?>
<svg width="1200pt" height="1200pt" version="1.1" viewBox="0 0 1200 1200" xmlns="http://www.w3.org/2000/svg">
 <path d="m177.14 491.16c9.8438 7.3125 15.375 18.938 15 31.219l-10.453 443.29c-0.46875 21.469 16.781 39.234 38.297 39.234 21.469 0 38.859-17.766 38.297-39.234l-10.453-443.29c-0.23438-12.234 5.1562-24 15-31.219 33.703-24.938 57.141-78.375 57.141-140.39 0-85.922-44.766-155.63-100.08-155.63s-100.08 69.703-100.08 155.63c0 62.062 23.391 115.45 57.141 140.39z"/>
 <path d="m1059.5 202.69c-1.0781-4.5469-5.7656-7.6875-11.156-7.6875-6.1406 0-11.297 4.0781-11.531 9.375l-6.4688 146.86c-0.23438 6-6.1406 10.922-13.312 10.922-7.2188 0-12.703-4.7812-13.219-10.688l-9.1406-147.24c-0.375-5.1562-5.3906-9.2344-11.531-9.2344h-2.5312c-6.1406 0-11.156 4.0781-11.391 9.2344l-9.1406 147.24c-0.375 5.8594-6.2344 10.688-13.312 10.688s-12.844-4.9219-13.312-10.922l-6.4688-146.86c-0.23438-5.2969-5.2969-9.375-11.391-9.375-5.3906 0-10.078 3.1406-11.297 7.6875-4.9219 19.781-17.391 80.297-20.531 202.78-0.23438 7.9219 2.0625 15.844 6.4688 22.312 8.3906 12.234 24.938 34.078 51.938 59.766 7.7812 7.4531 12.141 17.859 11.859 28.547l-10.547 449.53c-0.46875 21.469 16.781 39.234 38.297 39.234 21.469 0 38.859-17.766 38.297-39.234l-10.547-449.63c-0.23438-10.781 4.0781-21.234 11.859-28.688 27-25.688 43.453-47.391 51.844-59.625 4.4531-6.4688 6.7031-14.391 6.4688-22.312-3-122.53-15.609-183-20.531-202.78z"/>
 <path d="m600 902.06c166.55 0 302.06-135.47 302.06-302.06 0-166.55-135.47-302.06-302.06-302.06-166.55 0-302.16 135.47-302.16 302.06 0 166.55 135.47 302.06 302.16 302.06zm0-475.22c95.531 0 173.16 77.625 173.16 173.16s-77.625 173.16-173.16 173.16-173.16-77.625-173.16-173.16 77.625-173.16 173.16-173.16z"/>
 <path d="m600 748.55c81.844 0 148.55-66.609 148.55-148.55s-66.703-148.55-148.55-148.55-148.55 66.609-148.55 148.55 66.609 148.55 148.55 148.55z"/>
</svg>
